<?xml version="1.0" encoding="UTF-8" standalone="no"?>
<!-- Created with Inkscape (http://www.inkscape.org/) -->

<svg
   width="297mm"
   height="210mm"
   viewBox="0 0 297 210"
   version="1.1"
   id="svg5"
   xml:space="preserve"
   xmlns="http://www.w3.org/2000/svg"
   xmlns:svg="http://www.w3.org/2000/svg"><defs
     id="defs2"><filter
       style="color-interpolation-filters:sRGB"
       id="filter1340"
       x="-0.044894684"
       y="-0.086197428"
       width="1.0897894"
       height="1.281813"><feColorMatrix
         id="feColorMatrix1445"
         values="1 1 1 1 0 1 1 1 1 0 1 1 1 1 0 1 1 1 1 0"
         type="matrix" /><feMorphology
         id="feMorphology1431"
         operator="dilate"
         radius="2.2458628841607564"
         result="result1" /><feOffset
         dx="0"
         dy="2.8508771929824519"
         id="feOffset1067"
         in="result1"
         result="result3" /><feColorMatrix
         id="feColorMatrix1160"
         values="0 0 0 0 0.039 0 0 0 0 0.125 0 0 0 0 0.3019 0 0 0 1 0"
         result="result4" /><feMerge
         id="feMerge1435"
         result="result2"><feMergeNode
           id="feMergeNode509"
           in="result4" /><feMergeNode
           id="feMergeNode511"
           in="result1" /><feMergeNode
           id="feMergeNode513"
           in="SourceGraphic" /></feMerge></filter></defs><g
     id="layer10"><rect
       style="opacity:1;fill:#f13522;fill-opacity:1;stroke:none;stroke-width:3;stroke-linecap:round;stroke-dasharray:none;stroke-opacity:1;paint-order:markers fill stroke"
       id="rect20962"
       width="123.89258"
       height="17.932085"
       x="143.54266"
       y="44.91193" /><rect
       style="opacity:1;fill:#f13522;fill-opacity:1;stroke:none;stroke-width:3;stroke-linecap:round;stroke-dasharray:none;stroke-opacity:1;paint-order:markers fill stroke"
       id="rect20966"
       width="107.74646"
       height="12.448775"
       x="151.61572"
       y="84.835144" /><path
       id="rect20966-7"
       style="fill:#f13522;stroke-width:3;stroke-linecap:round;paint-order:markers fill stroke"
       d="m 233.67867,61.033401 h 12.54841 L 263.83534,176.436 h -19.31575 z" /><path
       id="path21433"
       style="fill:#f13522;stroke-width:3;stroke-linecap:round;paint-order:markers fill stroke"
       d="M 177.29967,61.033401 H 164.75126 L 147.143,176.436 h 19.31575 z" /></g><g
     id="layer1"
     style="opacity:1;filter:url(#filter1340)"><g
       id="layer7"
       style="opacity:1"><path
         style="opacity:1;fill:none;fill-opacity:1;stroke:#6fa7fa;stroke-width:3;stroke-linecap:round;stroke-dasharray:none;stroke-opacity:1;paint-order:markers fill stroke"
         d="m 213.11519,121.39082 c 0,0 2.63158,1.23345 4.5278,1.20555 3.93621,-0.0579 9.81634,-6.07005 9.81634,-6.07005"
         id="path9696" /><path
         style="opacity:1;fill:none;fill-opacity:1;stroke:#6fa7fa;stroke-width:3;stroke-linecap:round;stroke-dasharray:none;stroke-opacity:1;paint-order:markers fill stroke"
         d="m 220.09262,131.76723 c 0,0 2.63678,0.024 3.80196,-0.47442 2.83168,-1.21139 6.44125,-6.18441 6.44125,-6.18441"
         id="path9698" /><path
         style="opacity:1;fill:none;fill-opacity:1;stroke:#50ffdf;stroke-width:2;stroke-linecap:round;stroke-dasharray:none;stroke-opacity:1;paint-order:markers fill stroke"
         d="m 219.37669,140.44662 c 0,0 2.51168,1.49222 3.8184,1.51865 3.58021,0.0724 9.5071,-3.04398 9.5071,-3.04398"
         id="path9700" /><path
         style="opacity:1;fill:none;fill-opacity:1;stroke:#ff50df;stroke-width:2;stroke-linecap:round;stroke-dasharray:none;stroke-opacity:1;paint-order:markers fill stroke"
         d="m 215.96611,145.81626 c 0,0 5.67418,1.28261 7.90211,1.06232 4.85423,-0.47999 10.66768,-5.24559 10.66768,-5.24559"
         id="path9702" /><path
         style="opacity:1;fill:none;fill-opacity:1;stroke:#50ffdf;stroke-width:2;stroke-linecap:round;stroke-dasharray:none;stroke-opacity:1;paint-order:markers fill stroke"
         d="m 217.36389,150.8669 c 0,0 5.23147,1.10701 7.88711,0.41002 4.95574,-1.30068 12.22615,-8.31028 12.22615,-8.31028"
         id="path9704" /><path
         style="opacity:1;fill:none;fill-opacity:1;stroke:#50ffdf;stroke-width:2;stroke-linecap:round;stroke-dasharray:none;stroke-opacity:1;paint-order:markers fill stroke"
         d="m 249.91822,128.86782 c 0,0 6.55594,-6.40117 6.86303,-10.52769 0.15664,-2.10498 -1.97553,-4.56264 -1.97553,-4.56264"
         id="path9706" /><path
         style="opacity:1;fill:none;fill-opacity:1;stroke:#ff50df;stroke-width:2;stroke-linecap:round;stroke-dasharray:none;stroke-opacity:1;paint-order:markers fill stroke"
         d="m 266.43524,121.06626 c 0,0 -3.70446,3.28049 -5.88453,4.65365 -3.22886,2.03376 -10.46283,5.11367 -10.46283,5.11367"
         id="path9708" /><path
         style="opacity:1;fill:none;fill-opacity:1;stroke:#50ffdf;stroke-width:2;stroke-linecap:round;stroke-dasharray:none;stroke-opacity:1;paint-order:markers fill stroke"
         d="m 251.125,134.00498 c 0,0 8.71628,-1.03594 12.84862,-1.9871 2.07126,-0.47674 6.18903,-1.92979 6.18903,-1.92979"
         id="path9710" /><path
         style="opacity:1;fill:none;fill-opacity:1;stroke:#ff50df;stroke-width:2;stroke-linecap:round;stroke-dasharray:none;stroke-opacity:1;paint-order:markers fill stroke"
         d="m 248.17093,138.71628 c 0,0 6.99979,1.44957 10.02955,1.80489 3.87485,0.45442 10.95578,0.30036 10.95578,0.30036"
         id="path9712" /><path
         id="rect8500"
         style="opacity:1;fill:#6fa7fa;fill-opacity:1;stroke-width:30;stroke-linecap:round;paint-order:markers fill stroke"
         d="m 223.1953,112.27605 c 0.009,-0.87414 0.26285,-1.92937 0.97676,-2.43388 0.9117,-0.64427 3.43682,-0.1258 4.1663,0.71927 3.51955,4.0773 3.5487,7.66842 4.81659,12.32236 1.0373,3.80753 1.97587,13.21308 4.843,15.2319 7.41495,2.92343 8.85802,-3.86162 6.2571,-8.19954 -1.51403,-2.49569 -4.42804,-3.83893 -6.59817,-4.28693 -1.00074,-0.2066 -1.98896,-0.99061 -1.777,-1.99023 0.1668,-0.78667 1.27716,-1.75632 2.07596,-1.849 2.86232,-0.33213 5.80637,1.26188 8.0949,3.01283 2.32494,1.77882 4.57329,4.17965 5.01657,7.07327 0.66099,4.31476 -2.18642,9.63183 -6.13574,11.28876 -4.10987,1.72429 -8.18417,1.34823 -11.32752,-1.81143 -3.50961,-3.52785 -3.89287,-11.65974 -5.44538,-16.38762 -0.77554,-2.36176 -1.41616,-5.48097 -2.45035,-7.76439 -0.9042,-1.99641 -2.53428,-2.83634 -2.51302,-4.92537 z" /></g><g
       id="layer6"
       style="opacity:1"><path
         id="rect6838"
         style="opacity:1;fill:#50ffdf;stroke-width:30;stroke-linecap:square;paint-order:markers fill stroke"
         d="m 189.15073,100.77532 c 0.45951,-0.909384 2.38545,-0.75174 3.39432,-0.60921 1.1762,0.16617 1.73007,1.31658 1.53235,2.12614 -1.32124,5.40985 -5.05031,11.19206 -7.77354,17.1758 -1.93164,4.24435 -7.6577,11.436 -7.6577,11.436 l -2.97991,-0.0521 -1.55127,-2.1889 c 0,0 6.7176,-9.46132 9.11037,-14.76944 2.09331,-4.64379 3.91869,-9.14702 5.92538,-13.11832 z" /><path
         id="rect6840"
         style="opacity:1;fill:#ff50df;fill-opacity:1;stroke-width:30;stroke-linecap:square;paint-order:markers fill stroke"
         d="m 197.87965,111.26118 c 3.48822,-0.67307 6.51038,0.30523 9.19733,1.4968 1.8622,0.82582 3.14277,4.09253 1.66723,5.01683 -1.20415,0.75431 -3.86815,0.90079 -3.86815,0.90079 0,0 0.22693,-1.17044 -0.0858,-1.60062 -0.76407,-1.05117 -2.18594,-1.21638 -3.52095,-1.71114 -1.21668,-0.45091 -3.19822,0.003 -3.94881,-1.05552 -0.69251,-0.97652 -0.59973,-2.74672 0.55911,-3.04714 10e-6,0 4e-5,0 4e-5,0 z" /><path
         id="rect6842"
         style="opacity:1;fill:#50ffdf;stroke-width:30;stroke-linecap:square;paint-order:markers fill stroke"
         d="m 201.0816,115.67377 c 1.59742,-0.38151 4.2037,-0.82112 4.84382,0.69135 0.32968,0.77898 -0.20932,2.40966 -1.04936,2.31048 -2.14826,-0.25363 -3.98275,2.5702 -3.96523,4.96389 0.0158,2.16402 0.17864,5.18526 0.17864,5.18526 l -5.54057,-1.73128 c 0,0 0.0199,-4.93863 1.17114,-7.20636 0.95307,-1.87731 2.31383,-3.72427 4.36162,-4.21334 z" /><path
         id="rect6844"
         style="opacity:1;fill:#ff50df;fill-opacity:1;stroke-width:30;stroke-linecap:square;paint-order:markers fill stroke"
         d="m 193.59697,126.58297 c -2.64248,-0.0161 -5.89134,0.38289 -7.43159,2.41794 -1.52405,2.01364 -1.27756,5.11937 0.28215,7.10551 1.80374,2.2969 5.56048,2.78891 8.47184,2.5585 1.54409,-0.1222 3.33381,-0.45138 4.39818,-1.59835 1.31505,-1.41708 1.62057,-3.30781 1.62057,-3.30781 0,0 2.9732,2.39388 4.46846,3.59978 0.77733,0.62689 2.84661,0.21699 3.59203,-0.44752 0.87128,-0.77671 0.48955,-2.21495 -0.34468,-3.03134 -1.95553,-1.9137 -3.87991,-3.52957 -6.44818,-4.85706 -2.50118,-1.29282 -5.27431,-2.35806 -8.08892,-2.43086 -0.17009,-0.004 -0.3437,-0.008 -0.51986,-0.009 z m -2.88411,4.67774 c 1.20985,-1.1166 5.06958,-0.22364 5.06958,-0.22364 0,0 -0.35297,3.61492 -1.8637,4.06286 -1.06916,0.31701 -1.78417,-0.1355 -2.73996,-1.17413 -0.57818,-0.62828 -1.09336,-2.086 -0.46592,-2.66509 z" /><path
         id="rect6893"
         style="opacity:1;fill:#50ffdf;stroke-width:30;stroke-linecap:square;paint-order:markers fill stroke"
         d="m 172.40658,126.12346 c 0,0 2.04368,3.33458 3.74069,4.02146 2.38378,0.96485 7.70435,-0.40373 7.70435,-0.40373 0,0 -3.80086,2.25597 -5.64035,3.47909 -1.97434,1.31279 -5.7853,4.13801 -5.7853,4.13801 0,0 0.46172,-3.88622 0.4521,-5.83803 -0.009,-1.80576 -0.47149,-5.3968 -0.47149,-5.3968 z" /><path
         id="rect6836"
         style="opacity:1;fill:#ff50df;fill-opacity:1;stroke-width:30;stroke-linecap:square;paint-order:markers fill stroke"
         d="m 189.005,107.40182 c 3.3503,-0.2019 6.53102,-1.58009 9.01338,-1.11809 1.11802,0.20808 1.29084,2.85946 0.28992,3.3993 -3.54695,1.91304 -6.73258,1.80567 -10.18622,2.13022 -3.2589,0.30626 -6.59802,0.31225 -9.81806,-0.18419 -1.04194,-0.16064 -1.93282,-1.2699 -1.67415,-2.29192 0.23113,-0.9132 0.70593,-1.48038 1.41958,-1.84914 0.52603,-0.27181 7.68539,0.70262 10.95555,-0.0862 z" /></g><g
       id="layer5"
       style="opacity:1"><path
         id="rect5553"
         style="opacity:1;fill:#ff50df;fill-opacity:1;stroke-width:30;stroke-linecap:square;paint-order:markers fill stroke"
         d="m 125.85355,111.17642 c 0.57595,-0.96131 2.85692,-1.10955 5.65138,-2.72069 2.78349,-1.60482 4.32561,-2.43253 5.87185,-3.45573 1.45862,-0.96522 4.012,-1.38521 5.3397,-0.46895 2.09231,1.44393 2.1665,2.18487 2.51227,3.60938 1.27876,5.26835 0.15614,11.01215 -0.45088,17.07171 -0.51838,5.17464 -1.44081,9.85149 -3.73749,14.51741 -1.10028,2.2353 -2.88197,4.59565 -5.27242,5.29778 -1.44406,0.42415 -3.82639,0.38658 -5.58035,-0.21952 -1.65113,-0.57057 -2.71995,-1.7001 -2.71995,-1.7001 0,0 4.82218,-1.94115 6.42471,-4.10193 3.29511,-4.44299 3.51718,-8.85564 4.02284,-12.39023 0.35587,-2.48751 0.72956,-7.18856 0.9345,-10.25554 0.16866,-2.52391 0.1584,-5.43003 0.1584,-5.43003 0,0 -3.37029,1.85051 -6.58218,3.19495 -1.83641,0.76869 -2.67089,0.9248 -5.13847,0.84323 -2.34185,-0.0774 -1.89854,-3.01626 -1.43391,-3.79174 z" /><path
         id="rect6114"
         style="opacity:1;fill:#50ffdf;stroke-width:30;stroke-linecap:square;paint-order:markers fill stroke"
         d="m 127.46766,143.10771 c 0,0 -3.7948,-4.70381 -1.33798,-10.70549 1.44672,-3.53415 4.79339,-5.89755 6.73332,-7.34423 5.6496,-4.21311 23.2316,-4.25782 23.2316,-4.25782 l -0.14309,5.27598 c 0,0 -12.89663,-0.54527 -18.33689,2.7907 -1.67864,1.02934 -4.81018,3.74098 -5.454,5.8671 -0.92865,3.06675 1.36993,5.74391 1.36993,5.74391 l -5.80981,2.86947 z" /><path
         id="path18523"
         style="display:inline;opacity:1;fill:#50ffdf;stroke-width:30;stroke-linecap:square;paint-order:markers fill stroke"
         d="m 162.7353,126.85991 c 0,0 -1.78645,6.39842 -2.88469,8.9267 -1.23282,2.83812 -4.10848,7.17249 -4.10848,7.17249 l -0.80513,0.94851 -5.37529,-3.33347 0.69822,-0.90964 c 0,0 2.11479,-3.07064 3.59625,-6.69874 0.97605,-2.39033 1.61077,-6.85234 1.61077,-6.85234 l 3.63417,-1.22954 z" /><path
         id="rect6543"
         style="opacity:1;fill:#ff50df;fill-opacity:1;stroke-width:30;stroke-linecap:square;paint-order:markers fill stroke"
         d="m 147.04439,136.10635 c 0,0 3.95416,5.26936 6.64368,6.41937 2.78101,1.18912 7.95797,2.33107 7.95797,2.33107 0,0 -5.2266,0.37962 -7.82796,0.86978 -2.12874,0.4011 -6.32563,1.66048 -6.32563,1.66048 0,0 0.60757,-3.5695 0.53821,-5.42995 -0.072,-1.93165 -0.98627,-5.85075 -0.98627,-5.85075 z" /><path
         id="rect6706"
         style="display:inline;opacity:1;fill:#ff50df;fill-opacity:1;stroke-width:30;stroke-linecap:square;paint-order:markers fill stroke"
         d="m 161.59334,121.08298 c 0,0 6.50547,-0.71105 9.04037,0.94885 1.13222,0.74139 2.30534,2.21262 2.00278,3.53173 -0.30781,1.34197 -2.51495,2.81266 -3.84775,2.43807 -2.60884,-0.73321 -6.86971,-1.22555 -6.86971,-1.22555 z" /><path
         id="rect6345"
         style="display:inline;opacity:1;fill:#ff50df;fill-opacity:1;stroke-width:30;stroke-linecap:square;paint-order:markers fill stroke"
         d="m 153.48838,113.11648 c -0.22916,-0.85915 0.3677,-2.33767 1.25839,-2.77331 1.36091,-0.66564 3.69504,-1.13056 4.45823,0.14549 3.49513,5.84386 3.5303,16.37125 3.5303,16.37125 l -7.26835,-0.74649 c 0,0 -0.38033,-7.00485 -1.97857,-12.99694 z" /></g><g
       id="layer4"
       style="opacity:1"><path
         id="rect3508"
         style="opacity:1;fill:#ff50df;fill-opacity:1;stroke-width:31.764;stroke-linecap:square;paint-order:markers fill stroke"
         d="m 180.21138,52.325927 14.14564,0.237343 -0.10295,6.135784 -14.14564,-0.237343 z" /><path
         id="rect3504"
         style="opacity:1;fill:#50ffdf;stroke-width:30;stroke-linecap:square;paint-order:markers fill stroke"
         d="m 157.66943,59.614199 0.0815,17.354145 c 0,0 -1.48766,3.155228 -2.36194,4.770117 -0.84918,1.568506 -2.80845,4.780067 -2.80845,4.780067 l -3.59598,-7.663635 c 0,0 2.85604,-3.520485 4.98686,-8.650567 1.83499,-4.417842 3.32526,-11.505272 3.32526,-11.505272 z" /><path
         id="rect3506"
         style="opacity:1;fill:#50ffdf;stroke-width:30;stroke-linecap:square;paint-order:markers fill stroke"
         d="m 163.91272,72.902497 0.47442,-10.416904 0.95632,0.877392 c 0,0 1.9514,2.886891 2.87929,4.467714 1.18605,2.02066 2.94777,4.778092 2.94777,4.778092 0,0 -1.54009,2.137801 -2.2847,3.224426 -0.74354,1.085066 -2.17928,3.289795 -2.17928,3.289795 0,0 -0.77799,-2.393601 -1.11427,-3.142337 -0.59499,-1.324769 -1.67955,-3.078178 -1.67955,-3.078178 z" /><path
         id="rect4510"
         style="opacity:1;fill:#50ffdf;stroke-width:21.2132;stroke-linecap:square;paint-order:markers fill stroke"
         d="m 183.60003,41.609263 7.59036,0.0769 c 0,0 3.94956,5.433458 6.08177,7.537962 2.74765,2.711939 8.67048,6.549284 8.67048,6.549284 0,0 -1.75015,1.977723 -2.56931,3.246141 -0.72818,1.127533 -2.25908,3.680791 -2.25908,3.680791 0,0 -3.26289,-2.257163 -7.24259,-6.162664 -0.64747,-0.635392 -6.60166,-7.385468 -6.60166,-7.385468 0,0 -3.92739,4.61976 -6.03854,6.618136 -2.61014,2.470717 -8.23123,6.448611 -8.23123,6.448611 0,0 -1.21919,-2.203979 -1.69833,-2.877315 -0.97934,-1.376278 -2.60256,-3.196982 -2.60256,-3.196982 0,0 6.36067,-4.706074 8.44126,-6.663133 1.41507,-1.331056 6.45943,-7.872263 6.45943,-7.872263 z" /><path
         id="rect3500"
         style="opacity:1;fill:#ff50df;fill-opacity:1;stroke-width:27.9646;stroke-linecap:square;paint-order:markers fill stroke"
         d="m 150.40448,52.523237 20.76604,0.358416 -0.14069,8.151748 -20.76604,-0.358416 z" /><path
         id="rect3502"
         style="opacity:1;fill:#ff50df;fill-opacity:1;stroke-width:32.8633;stroke-linecap:square;paint-order:markers fill stroke"
         d="m 157.63818,42.556843 8.22072,0.205689 -1.36072,54.383343 -8.22071,-0.205689 z" /><path
         id="rect3510"
         style="opacity:1;fill:#50ffdf;stroke-width:31.5095;stroke-linecap:square;paint-order:markers fill stroke"
         d="m 173.86641,59.614199 26.39667,0.322998 -0.074,5.849287 -26.39669,-0.322998 z" /><path
         id="rect3514"
         style="opacity:1;fill:#ff50df;fill-opacity:1;stroke-width:30;stroke-linecap:square;paint-order:markers fill stroke"
         d="m 180.19816,66.701629 12.15115,0.07032 -0.0302,5.215403 -12.15115,-0.07032 z" /><path
         id="rect3516"
         style="opacity:1;fill:#50ffdf;stroke-width:36.4999;stroke-linecap:square;paint-order:markers fill stroke"
         d="m 191.78256,64.998498 8.41498,0.257483 -0.51929,13.977708 -8.41499,-0.257483 z" /><path
         id="rect3518"
         style="opacity:1;fill:#50ffdf;stroke-width:30;stroke-linecap:square;paint-order:markers fill stroke"
         d="m 175.72887,72.902497 20.64698,0.34407 -0.0919,5.517369 -20.64698,-0.34407 z" /><path
         id="rect3520"
         style="opacity:1;fill:#ff50df;fill-opacity:1;stroke-width:32.7028;stroke-linecap:square;paint-order:markers fill stroke"
         d="m 176.7131,79.821982 8.14991,-0.0062 0.0134,17.615598 -8.14991,0.0062 z" /><path
         id="rect3522"
         style="opacity:1;fill:#ff50df;fill-opacity:1;stroke-width:33.1563;stroke-linecap:square;paint-order:markers fill stroke"
         d="m 176.87029,79.679081 24.49151,0.418904 -0.12366,7.230116 -24.49151,-0.418904 z" /><path
         id="rect3524"
         style="opacity:1;fill:#ff50df;fill-opacity:1;stroke-width:28.8572;stroke-linecap:square;paint-order:markers fill stroke"
         d="m 192.87937,81.197817 8.46282,0.0467 -0.31471,16.693007 -8.48243,-0.171157 z" /><path
         id="rect3512"
         style="opacity:1;fill:#50ffdf;stroke-width:30;stroke-linecap:square;paint-order:markers fill stroke"
         d="m 173.79239,65.463486 7.66686,-0.565269 c 0,0 -0.0872,5.009677 -0.39012,8.935363 -0.33475,4.338603 -0.96553,8.430379 -2.45165,11.609394 -2.33583,4.996658 -5.70294,9.54969 -5.70294,9.54969 l -3.45871,-2.839562 -2.57969,-2.117892 c 0,0 5.81338,-6.093775 6.604,-14.510267 0.37334,-3.974458 0.31225,-10.06146 0.31225,-10.06146 z" /><path
         id="rect3524-5"
         style="opacity:1;fill:#ff50df;fill-opacity:1;stroke-width:24.592;stroke-linecap:square;paint-order:markers fill stroke"
         d="m 155.92836,84.988804 8.88453,0.03392 -0.31471,12.123151 h -8.85142 z" /><path
         id="rect3526"
         style="opacity:1;fill:#ff50df;fill-opacity:1;stroke-width:34.1334;stroke-linecap:square;paint-order:markers fill stroke"
         d="m 183.71104,89.28031 10.47179,0.155577 -0.13812,6.866967 -10.47178,-0.155578 z" /><path
         id="rect4687"
         style="opacity:1;fill:#ff50df;fill-opacity:1;stroke-width:30;stroke-linecap:square;paint-order:markers fill stroke"
         d="m 161.75147,34.580075 c 0,0 2.71715,3.874071 4.10743,5.561278 1.74429,2.116827 5.31162,5.836702 5.31162,5.836702 0,0 -6.543,-1.121651 -9.70909,-1.09424 -2.975,0.02576 -8.53948,1.173311 -8.53948,1.173311 0,0 3.25568,-3.900569 4.68423,-5.756872 1.51526,-1.968974 4.14529,-5.720179 4.14529,-5.720179 z" /></g><g
       id="layer3"
       style="opacity:1"><path
         id="rect3492"
         style="opacity:1;fill:#50ffdf;stroke-width:32.5253;stroke-linecap:square;paint-order:markers fill stroke"
         d="m 119.18528,53.556948 h 7.06362 l -0.89613,44.068512 h -7.06362 z" /><path
         id="rect3494"
         style="opacity:1;fill:#ff50df;fill-opacity:1;stroke-width:26.4253;stroke-linecap:square;paint-order:markers fill stroke"
         d="m 111.5201,83.248747 21.02112,0.391039 -0.0738,6.639992 -21.02112,-0.391039 z" /><path
         id="rect3496"
         style="opacity:1;fill:#50ffdf;stroke-width:30;stroke-linecap:square;paint-order:markers fill stroke"
         d="m 117.14812,67.36805 7.09717,3.228096 -5.2258,4.92987 c 0,0 -2.19412,3.513798 -6.83987,8.75948 -3.05478,3.449266 -7.19292,6.466319 -7.19292,6.466319 0,0 -1.68905,-1.877552 -2.48392,-2.858003 -0.74375,-0.917378 -2.39664,-2.752348 -2.39664,-2.752348 0,0 6.50641,-4.38178 9.13857,-7.654883 3.64253,-4.529494 6.06492,-8.520363 6.06492,-8.520363 1.1597,-1.63412 1.83849,-1.598168 1.83849,-1.598168 z" /><path
         id="rect3498"
         style="opacity:1;fill:#50ffdf;stroke-width:30;stroke-linecap:square;paint-order:markers fill stroke"
         d="m 122.26903,73.021951 5.10974,-6.548543 2.32067,2.765081 c 0,0 3.39437,5.897542 6.55091,8.99061 5.04394,4.942529 8.62078,6.959519 8.62078,6.959519 l -5.41716,6.04776 c 0,0 -4.08242,-3.235661 -7.74921,-7.382613 -2.92772,-3.311105 -5.90392,-8.262561 -5.90392,-8.262561 z" /><path
         id="rect3490"
         style="opacity:1;fill:#ff50df;fill-opacity:1;stroke-width:28.1103;stroke-linecap:square;paint-order:markers fill stroke"
         d="m 102.29279,61.919404 38.6848,0.73196 -0.10286,6.798574 -38.6848,-0.73196 z" /><path
         id="rect4685"
         style="opacity:1;fill:#ff50df;fill-opacity:1;stroke-width:30;stroke-linecap:square;paint-order:markers fill stroke"
         d="m 139.58213,58.412712 c 0,0 2.55083,3.03938 3.96053,4.431304 1.21698,1.201641 3.86858,3.370299 3.86858,3.370299 0,0 -2.6306,1.86979 -3.86127,2.910633 -1.35339,1.14463 -3.86127,3.656114 -3.86127,3.656114 0,0 1.07144,-4.502475 1.05829,-6.891383 -0.0135,-2.451973 -1.16486,-7.476967 -1.16486,-7.476967 z" /></g><g
       id="layer2"><path
         id="rect3478"
         style="opacity:1;fill:#ff50df;fill-opacity:1;stroke-width:30;stroke-linecap:square;paint-order:markers fill stroke"
         d="m 65.69956,64.533205 8.890681,-1.603336 12.460375,44.508621 -8.890681,1.60333 z" /><path
         id="rect3480"
         style="opacity:1;fill:#50ffdf;stroke-width:30.2547;stroke-linecap:square;paint-order:markers fill stroke"
         d="M 48.717726,84.408783 99.323553,69.435711 101.97644,78.117782 51.370609,93.090854 Z" /><path
         id="rect4683"
         style="opacity:1;fill:#ff50df;fill-opacity:1;stroke-width:30;stroke-linecap:square;paint-order:markers fill stroke"
         d="m 81.946311,105.63931 c 3.934953,-1.16865 9.908116,-4.75513 9.908116,-4.75513 0,0 -3.037884,4.87673 -4.364015,7.37589 -1.121325,2.1132 -2.991395,6.45306 -2.991395,6.45306 0,0 -4.311775,-2.98843 -5.881411,-3.95606 -2.61046,-1.60925 -6.64733,-3.79283 -6.64733,-3.79283 0,0 6.881938,-0.40601 9.976035,-1.32493 z" /><path
         id="rect970"
         style="opacity:1;fill:#50ffdf;fill-opacity:1;stroke:none;stroke-width:30;stroke-linecap:square;stroke-opacity:1;paint-order:markers fill stroke"
         d="m 47.14753,67.714239 c 0,0 13.638512,-5.157689 20.066532,-8.110787 5.764149,-2.64811 15.261823,-8.160626 15.261823,-8.160626 l 7.860445,4.864818 c 0,0 -7.781145,5.430246 -18.405637,9.953404 -9.02814,3.843543 -20.300772,8.130551 -20.300772,8.130551 0,0 -1.122662,-2.515356 -1.909114,-3.595818 -0.769632,-1.057355 -2.573277,-3.081542 -2.573277,-3.081542 z" /></g></g><g
     id="layer9"><g
       aria-label="SEMBONYARI MINAMO"
       id="text20661"
       style="font-size:26.4583px;font-family:BlowBrush;-inkscape-font-specification:BlowBrush;opacity:1;fill:#0a204d;stroke-width:3;stroke-linecap:round;paint-order:markers fill stroke;filter:url(#filter1340)"><path
         d="m 58.381962,161.58167 q 0.635,0.39688 0.978957,0.9525 0.291042,0.47625 0.370417,1.19063 0.07937,0.68791 -0.449791,1.61395 -1.164166,0 -2.460622,0.21167 -1.296457,0.21167 -2.381247,0.47625 -1.058332,0.26458 -1.772706,0.50271 -0.687916,0.23812 -0.687916,0.3175 -0.02646,0.13229 0.687916,0.34395 0.740832,0.21167 1.825622,0.60855 1.084791,0.39687 2.328331,1.00541 1.24354,0.58208 2.301872,1.42875 1.058332,0.84666 1.719789,2.01083 0.661458,1.13771 0.582083,2.61937 -0.105833,1.82562 -0.740833,2.98979 -0.634999,1.16416 -1.613956,1.82562 -0.978957,0.66146 -2.248955,0.89958 -1.24354,0.23813 -2.619372,0.23813 -1.375832,0 -2.48708,-0.60854 -1.111249,-0.635 -1.878539,-1.53458 -0.767291,-0.89959 -1.190624,-1.905 -0.396874,-1.03187 -0.343958,-1.79917 0.05292,-0.76729 0.132292,-1.37583 0.07937,-0.635 0.185208,-1.08479 0.105833,-0.50271 0.238125,-0.92604 -0.02646,0.3175 -0.05292,0.71438 -0.02646,0.34395 -0.05292,0.8202 0,0.47625 0.02646,1.05834 0,-0.47625 0.05292,-0.97896 0.05292,-0.52917 0.105833,-0.9525 0.07937,-0.47625 0.15875,-0.9525 l 0.423333,-0.47625 0.132292,0.3175 q -0.132292,2.03729 0.529165,3.20146 0.661458,1.16416 1.71979,1.69333 1.058332,0.52916 2.301872,0.55562 1.269998,0 2.381247,-0.23812 1.111249,-0.26459 1.852081,-0.66146 0.740832,-0.42333 0.767291,-0.74083 0.02646,-0.42334 -0.449791,-0.79375 -0.47625,-0.37042 -1.269999,-0.71438 -0.793749,-0.37041 -1.799164,-0.71437 -1.005416,-0.34396 -2.063748,-0.74083 -1.058332,-0.39688 -2.090205,-0.84667 -1.005416,-0.44979 -1.772706,-1.00541 -0.767291,-0.55563 -1.24354,-1.24354 -0.449791,-0.71438 -0.396875,-1.56104 0.05292,-0.84667 0.132292,-1.29646 0.07937,-0.44979 0.132291,-0.66146 0.07937,-0.23812 0.15875,-0.23812 0.02646,-0.71438 0.714374,-1.24354 0.687916,-0.55563 1.693331,-0.9525 1.031874,-0.39688 2.222497,-0.66146 1.217082,-0.26458 2.301872,-0.39687 1.084791,-0.15875 1.87854,-0.21167 0.820207,-0.0794 1.031873,-0.0794 z"
         id="path378" /><path
         d="m 65.366945,175.92207 q 1.322915,-0.47625 2.831038,-0.89958 1.534581,-0.42333 3.069163,-0.68791 1.534581,-0.29105 2.963329,-0.37042 1.428749,-0.10583 2.592914,0.0794 -0.05292,0.18521 -0.264583,0.39688 -0.105833,0.10583 -0.238125,0.26458 l -0.132291,0.3175 -1.005416,0.50271 0.740833,0.0794 q -0.211667,0.0794 -0.423333,0.18521 -0.185208,0.0794 -0.396875,0.21167 -0.185208,0.10583 -0.343958,0.23812 -0.317499,0.29104 -0.476249,0.52917 -0.15875,0.23812 -0.396875,0.34396 -0.105833,0 -1.111248,0.26458 -1.005416,0.23812 -2.592913,0.74083 -1.56104,0.50271 -3.518954,1.27 -1.931456,0.74083 -3.915829,1.71979 -0.317499,0.15875 -0.714374,-0.3175 -0.370416,-0.44979 -0.634999,-1.11125 -0.238125,-0.66146 -0.238125,-1.32291 0,-0.68792 0.47625,-0.9525 0.132291,-0.0529 0.264583,-0.10584 0.15875,-0.0794 0.317499,-0.13229 -0.02646,-1.1377 -0.05292,-2.51354 0,-1.37583 -0.02646,-2.80457 -0.02646,-1.42875 -0.07937,-2.83104 -0.02646,-1.40229 -0.105834,-2.59292 -0.05292,-1.21708 -0.132291,-2.11666 -0.07937,-0.89958 -0.211667,-1.32292 0.3175,-0.10583 0.661458,-0.21166 0.634999,-0.18521 1.455206,-0.13229 1.031874,-0.15875 2.566455,-0.23813 1.56104,-0.0794 3.095622,-0.10583 1.561039,-0.0529 2.910412,-0.0529 1.349374,0 1.984373,0 -0.02646,0.0794 -0.02646,0.18521 0.02646,0.10583 0.02646,0.23813 v 0.26458 q -0.15875,0.0529 -0.291041,0.15875 -0.132292,0.0794 -0.264583,0.18521 -0.132292,0.10583 -0.264583,0.23812 -0.05292,0.0529 -0.15875,0.13229 -0.07937,0.0529 -0.185208,0.13229 l -0.264583,0.21167 h 0.529166 l -0.846666,0.47625 -0.02646,0.3175 q -0.291041,0.13229 -0.555624,0.23812 -0.211667,0.10584 -0.423333,0.18521 -0.185208,0.0794 -0.238125,0.10584 -0.05292,0 -0.555624,0.0794 -0.47625,0.0794 -1.217082,0.21167 -0.714374,0.13229 -1.613956,0.29104 -0.873124,0.15875 -1.746248,0.3175 0,0.15875 -0.02646,0.3175 0,0.15875 0,0.3175 -0.02646,0.52916 -0.05292,1.00541 0,0.47625 -0.05292,0.9525 0.873124,-0.10583 1.825623,-0.21167 0.952499,-0.10583 1.852081,-0.15875 0.899582,-0.0794 1.666873,-0.10583 0.793749,-0.0529 1.322915,-0.0529 -0.02646,0.0529 -0.05292,0.15875 0,0.10584 -0.05292,0.18521 -0.05292,0.10584 -0.105833,0.21167 l -0.105834,0.635 -0.820207,0.47625 h 0.343958 l -0.873124,0.58208 0.05292,0.26458 -0.952499,0.26459 -0.15875,0.3175 q -0.264583,0.13229 -0.529166,0.23812 -0.211666,0.10583 -0.449791,0.21167 -0.211666,0.10583 -0.343958,0.15875 -0.05292,0 -0.343958,0.0794 -0.291041,0.0794 -0.714374,0.21167 -0.396874,0.10583 -0.899582,0.23812 -0.502708,0.13229 -0.978957,0.26459 -0.07937,1.05833 -0.185208,1.85208 -0.07937,0.79375 -0.15875,1.29645 z"
         id="path380" /><path
         d="m 91.640015,166.95271 q 0.02646,2.2225 0.158749,4.20687 0.132292,1.95791 0.291042,3.49249 0.185208,1.79917 0.396874,3.33375 l -0.264583,0.9525 -0.264583,0.0529 -0.105833,0.66145 -0.211666,0.79375 -0.343958,0.0529 -0.05292,0.60854 q -0.07937,-0.0265 -0.15875,-0.0265 -0.158749,0 -0.264583,0.0529 -0.05292,0.0265 -0.07937,0.13229 0,0.13229 -0.05292,0.15875 -0.529166,-0.97896 -0.978957,-2.27541 -0.449791,-1.32292 -0.820208,-2.83104 -0.370416,-1.50813 -0.661457,-3.09562 -0.291041,-1.61396 -0.502708,-3.14854 -0.343958,1.05833 -0.76729,2.27541 -0.396875,1.19063 -0.820208,2.38125 -0.396874,1.19062 -0.793749,2.30187 -0.396874,1.11125 -0.714374,1.95792 -0.07937,0.21166 -0.502707,0.42333 -0.423333,0.21167 -0.926041,0.21167 -0.502708,0 -0.952499,-0.3175 -0.449791,-0.34396 -0.529166,-1.24354 -0.238124,-0.55563 -0.555624,-1.29646 -0.291041,-0.74083 -0.661457,-1.61396 -0.343958,-0.87312 -0.740833,-1.82562 -0.396874,-0.97896 -0.820207,-1.98437 -0.15875,1.50812 -0.343958,2.77812 -0.15875,1.27 -0.291041,2.19604 -0.15875,1.08479 -0.291042,2.01083 l -0.343958,-0.0529 -1.005415,1.77271 -0.687916,0.21166 -0.211666,0.42334 q -0.132292,-0.0794 -0.238125,-0.15875 -0.105833,-0.0529 -0.238125,-0.0794 -0.105833,-0.0529 -0.185208,0 -0.158749,0.0794 -0.291041,0.37042 -0.105833,0.3175 -0.238125,0.3175 0.07937,-0.82021 0.15875,-2.16958 0.105833,-1.37583 0.185208,-3.04271 0.105833,-1.66687 0.15875,-3.49249 0.07937,-1.82562 0.105833,-3.54541 0.02646,-1.71979 0,-3.20146 -0.02646,-1.48166 -0.105833,-2.46062 0,-0.0265 -0.05292,-0.0794 0.02646,0 0.05292,-0.0264 -0.02646,-0.23813 -0.05292,-0.42334 0,-0.21166 -0.05292,-0.37041 0.317499,-0.10584 0.661457,-0.15875 0.291042,-0.0529 0.661458,-0.0529 0.396874,0 0.820207,0.10583 0.529166,-0.10583 1.058332,-0.10583 0.555624,0 1.005416,0.13229 0.476249,0.13229 0.820207,0.42334 0.343958,0.26458 0.476249,0.71437 0.793749,2.75166 1.455207,5.18583 0.687915,2.4077 1.111248,4.02166 0.555625,-1.48167 1.137707,-2.91042 0.608541,-1.42874 1.164165,-2.67228 0.555625,-1.24354 1.005416,-2.19604 0.476249,-0.97896 0.740832,-1.50813 -0.02646,-0.1852 -0.02646,-0.3175 0,-0.13229 0,-0.26458 0.396874,-0.23812 1.031874,-0.39687 0.634999,-0.18521 1.296456,-0.21167 0.661458,-0.0265 1.190624,0.15875 0.555624,0.18521 0.793749,0.635 0.132291,0.26458 0.185208,0.60854 0.05292,0.34396 0.05292,0.82021 0.02646,0.47625 0.02646,1.11125 0,0.635 0,1.50812 z"
         id="path382" /><path
         d="m 108.785,174.36103 q 0.0794,1.56104 -0.52916,2.67229 -0.58209,1.11125 -1.69334,1.82562 -1.08479,0.71438 -2.59291,1.05834 -1.48166,0.34395 -3.175,0.34395 -0.71437,0 -1.904993,0.0265 -1.164165,0 -2.407705,-0.3175 -0.07937,0.13229 -0.15875,0.26459 -0.07937,0.10583 -0.132291,0.23812 -0.105833,0.15875 -0.238125,0.0265 -0.105833,-0.10583 -0.15875,-0.3175 -0.07937,0.42333 -0.105833,0.58208 0,0.15875 -0.132291,0.23813 -0.105834,0.0529 -0.211667,0.26458 -0.105833,0.21167 -0.185208,0.23812 -0.05292,-0.1852 -0.07937,-0.71437 0,-0.52917 -0.02646,-1.37583 -1.005416,-0.52917 -1.746248,-1.53458 -0.714374,-1.03188 -0.92604,-2.75167 0.952498,0.58209 2.592913,0.97896 -0.02646,-1.00541 -0.05292,-2.06375 0,-1.08479 -0.05292,-2.16958 -0.3175,0 -0.661458,0.0265 -0.317499,0 -0.687916,0.0265 -0.370416,-0.23812 -0.582082,-0.66146 -0.185208,-0.34396 -0.238125,-0.87312 -0.05292,-0.55563 0.291041,-1.32292 0.105834,-0.10583 0.661458,-0.21166 l -0.02646,-0.29104 0.317499,-0.0794 q 0.132292,-0.0529 0.343958,-0.0794 0.211667,-0.0529 0.47625,-0.1323 -0.05292,-0.68791 -0.07937,-1.32291 -0.02646,-0.66146 -0.07937,-1.24354 -0.449791,0 -0.608541,-0.10583 -0.15875,-0.10584 -0.3175,-0.39688 -0.132291,-0.3175 -0.211666,-0.66146 -0.07938,-0.34395 -0.07938,-0.68791 0.02646,-0.37042 0.15875,-0.60854 0.105833,0 0.211666,-0.0265 0.105833,-0.0265 0.238125,-0.0265 0.132291,-0.0265 0.317499,-0.0794 -0.05292,-0.23813 -0.105833,-0.3175 0.555625,-0.21167 1.111249,-0.3175 0.476249,-0.0794 0.978957,-0.0529 0.529166,0.0265 0.978957,0.3175 0.899582,-0.10583 1.904998,-0.15875 1.005412,-0.0794 1.984372,-0.0794 0.97896,0 1.85208,0.0794 0.87313,0.0794 1.56104,0.26458 0.3175,0.23813 0.52917,0.635 0.21166,0.39688 0.3175,0.89958 0.13229,0.47625 0.18521,1.00542 0.0529,0.50271 0.0529,0.97896 -0.0794,0.34396 -0.37041,0.74083 -0.23813,0.34396 -0.71438,0.76729 -0.44979,0.39687 -1.21708,0.82021 1.05833,0.26458 2.01083,0.71437 0.97896,0.42333 1.69333,1.11125 0.74083,0.68792 1.19063,1.64041 0.44979,0.92605 0.52916,2.19604 z M 98.148765,165.4975 q 0,0.44979 0,0.87313 0.02646,0.42333 0.02646,0.84666 1.164165,-0.39687 2.196035,-0.84666 1.05833,-0.47625 1.66687,-0.97896 -0.13229,-0.0794 -0.5027,-0.0794 -0.34396,-0.0265 -0.89958,0 -0.52917,0.0265 -1.190626,0.0794 -0.635,0.0529 -1.296457,0.10583 z m 7.355405,8.86353 q 0,-0.66145 -0.76729,-1.19062 -0.3175,-0.23812 -0.84666,-0.44979 -0.52917,-0.23813 -1.32292,-0.42333 -0.79375,-0.18521 -1.87854,-0.29105 -1.084789,-0.13229 -2.539995,-0.1852 -0.05292,1.61395 -0.15875,2.75166 -0.105833,1.13771 -0.211666,1.87854 1.904997,0.0529 3.942291,-0.39688 2.06374,-0.44979 3.78353,-1.69333 z"
         id="path384" /><path
         d="m 107.51499,171.31833 q 0,-2.56646 0.44979,-4.25979 0.47625,-1.69333 1.03187,-2.69874 0.55563,-1.03188 1.03188,-1.45521 0.5027,-0.42333 0.55562,-0.44979 0.47625,-0.26458 1.05833,-0.13229 0.58208,0.13229 1.08479,0.47625 0.50271,0.34395 0.82021,0.79375 0.34396,0.42333 0.34396,0.79374 0,0.26459 -0.37042,0.68792 -0.34396,0.39687 -0.79375,1.16417 -0.42333,0.76729 -0.79375,1.98437 -0.34395,1.21708 -0.34395,3.0427 0,1.93146 0.39687,3.22792 0.39687,1.29645 0.89958,2.0902 0.52917,0.79375 1.03188,1.13771 0.5027,0.34396 0.68791,0.37041 0.3175,0.0265 0.84667,-0.39687 0.55562,-0.42333 1.08479,-1.34937 0.52916,-0.92604 0.89958,-2.32833 0.39687,-1.42875 0.39687,-3.38667 0,-1.21708 -0.1852,-2.14312 -0.15875,-0.92604 -0.42334,-1.5875 -0.26458,-0.68791 -0.635,-1.1377 -0.34395,-0.44979 -0.68791,-0.74084 -0.87313,-0.66145 -1.93146,-0.68791 l -0.18521,-0.0529 0.21167,-0.10583 q 0.15875,-0.0794 0.13229,-0.18521 -0.0265,-0.0265 0.3175,0 0.34396,0.0265 0.79375,0.15875 0.47625,0.10583 0.92604,0.34396 0.47625,0.21166 0.68792,0.58208 -0.18521,-0.47625 -0.66146,-0.74083 -0.47625,-0.26458 -1.00542,-0.39688 -0.5027,-0.15875 -0.89958,-0.21166 -0.39687,-0.0529 -0.39687,-0.0794 0,-0.13229 0.0794,-0.3175 0.10584,-0.21166 0.42334,-0.34396 0.55562,-0.26458 1.29645,-0.29104 0.76729,-0.0264 1.56104,0.23813 0.79375,0.23812 1.56104,0.82021 0.76729,0.55562 1.37583,1.48166 0.60854,0.92604 0.97896,2.27541 0.37042,1.32292 0.37042,3.12208 0,2.51354 -0.635,4.36562 -0.635,1.85208 -1.56104,3.09562 -0.89958,1.21709 -1.93146,1.82563 -1.03187,0.60854 -1.82562,0.60854 -2.14312,0 -3.6777,-0.87313 -1.50813,-0.89958 -2.48709,-2.24895 -0.97895,-1.34938 -1.4552,-2.96333 -0.44979,-1.64042 -0.44979,-3.12208 z"
         id="path386" /><path
         d="m 134.29078,165.33875 q -0.0794,3.20146 -0.0794,5.45041 0.0265,2.24896 0.0794,3.78354 0.0794,1.53458 0.18521,2.46062 0.10583,0.89958 0.18521,1.42875 0.0794,0.52917 0.10583,0.79375 0.0529,0.23812 0,0.42333 -0.0794,0.21167 -0.39687,0.39688 -0.3175,0.1852 -0.74083,0.3175 -0.42334,0.13229 -0.89959,0.1852 -0.44979,0.0794 -0.8202,0.0529 -0.52917,-0.0529 -0.84667,-0.39687 -0.29104,-0.37042 -0.42333,-1.19063 -0.68792,-1.03187 -1.40229,-2.22249 -0.68792,-1.19063 -1.37583,-2.43417 -0.68792,-1.27 -1.34938,-2.53999 -0.66146,-1.29646 -1.29645,-2.51354 -0.1323,1.61395 -0.23813,3.12208 -0.10583,1.48166 -0.21167,2.64583 -0.10583,1.37583 -0.21166,2.56645 l -0.15875,-0.0529 -0.66146,1.29646 -0.39687,0.21167 -0.3175,0.87312 -0.3175,-0.26458 -0.37042,0.89958 h -0.18521 q -0.0794,0 -0.15875,0.0265 -0.0794,0.0265 -0.13229,0.0529 -0.13229,0.0794 -0.3175,0.3175 -0.0265,-0.21167 -0.0529,-1.00542 -0.0265,-0.82021 -0.0529,-2.01083 0,-1.19062 -0.0265,-2.67229 0,-1.50812 -0.0265,-3.06916 0,-1.56104 -0.0529,-3.09562 -0.0265,-1.56104 -0.0794,-2.8575 -0.0529,-1.32291 -0.15875,-2.27541 -0.0794,-0.9525 -0.18521,-1.37583 0.13229,-0.0265 0.29104,-0.0794 0.1323,-0.0529 0.34396,-0.0794 0.21167,-0.0265 0.44979,-0.0794 0.55563,-0.23812 1.16417,-0.3175 0.635,-0.0794 1.19062,0.0529 0.58208,0.10583 1.05833,0.44979 0.47625,0.34396 0.71438,0.97896 0.50271,1.34937 1.08479,2.77812 0.60854,1.42875 1.21708,2.80458 0.60854,1.34937 1.16417,2.56645 0.55562,1.21708 1.00541,2.14312 0.0794,-1.7727 0.21167,-3.73062 0.13229,-1.95791 0.29104,-3.70416 0.18521,-1.7727 0.37041,-3.14854 0.18521,-1.37583 0.34396,-1.98437 0.0529,0.0529 0.0794,0.3175 0.0529,0.23813 0.10583,0.29104 0.0529,0.0529 0.10583,-0.13229 0.0529,-0.21167 0.10584,-0.15875 0.0265,0.0265 0.0794,0.18521 0.0529,0.13229 0.10583,0.3175 0.0529,0.18521 0.10584,0.34396 0.0529,0.15875 0.0794,0.18521 0.0794,0.0794 0.29104,0.0794 0.10584,0 0.18521,-0.0265 0.21167,0.37042 0.42334,0.76729 0.1852,0.34396 0.37041,0.76729 0.18521,0.39688 0.37042,0.84667 l 0.0794,0.23812 z"
         id="path388" /><path
         d="m 146.75264,162.34897 q 0.74083,0.10583 1.16417,0.44979 0.44979,0.34395 0.635,0.74083 0.21166,0.39687 0.23812,0.74083 0.0529,0.34396 0.0529,0.44979 -0.0265,0.0794 -0.23813,0.87313 -0.21166,0.76729 -0.52916,2.06374 -0.29105,1.29646 -0.635,3.01625 -0.3175,1.69333 -0.55563,3.62479 -0.21166,1.90499 -0.29104,3.96874 -0.0794,2.06375 0.13229,4.04812 -0.0529,0.29104 -0.0794,0.55563 -0.0265,0.26458 -0.0529,0.5027 0,0.0265 -0.0794,-0.42333 -0.0529,-0.42333 -0.1323,-0.9525 l -0.21166,-1.42875 q 0.0794,0.9525 0.15875,1.66688 0.0529,0.635 0.10583,1.1377 0.0529,0.52917 0.0529,0.55563 -0.0265,0.50271 -0.0794,0.97896 0,0.0264 -0.0529,-0.21167 -0.0265,-0.21167 -0.0265,-0.18521 0,0.0529 0.0265,0.37042 0.0264,0.3175 0.0264,0.37041 -0.0529,0.79375 -0.0264,1.08479 0.0529,0.29104 0.0529,0.39688 0,0.0529 -0.0529,0 -0.0265,-0.0265 -0.0794,-0.0794 0,0.0794 -0.0794,0.23813 -0.0794,0.15875 -0.1323,0.21166 -0.29104,0.18521 -0.60854,0.23813 -0.29104,0.0794 -0.42333,-0.15875 -0.82021,-1.5875 -1.29646,-3.30729 -0.47624,-1.71979 -0.68791,-3.46604 -0.21167,-1.7727 -0.23813,-3.51895 0,-1.77271 0.1323,-3.46604 -0.4498,1.21708 -0.84667,2.30188 -0.37042,1.05833 -0.71437,1.90499 -0.3175,0.82021 -0.58209,1.37583 -0.26458,0.52917 -0.47625,0.68792 -0.29104,0.21167 -0.74083,0.23812 -0.42333,0.0265 -0.9525,-0.0264 -0.97895,-0.13229 -1.61395,-0.74084 -0.60854,-0.635 -0.97896,-1.58749 -0.34396,-0.9525 -0.52917,-2.14313 -0.15875,-1.21708 -0.21166,-2.51353 -0.0529,-1.32292 -0.0529,-2.64583 0,-1.34938 -0.0265,-2.54 -0.0265,-1.19062 -0.15875,-2.14312 -0.10583,-0.97896 -0.42333,-1.5875 -0.10583,-0.21167 -0.26458,-0.37042 -0.0794,-0.0794 -0.15875,-0.13229 0,-0.76729 0.52916,-1.00541 0.55563,-0.26459 1.53458,-0.1323 1.27,0.15875 1.77271,0.87313 0.52917,0.68791 0.68792,2.01083 0.15875,1.32291 0.10583,3.30729 -0.0265,1.95791 0.13229,4.65666 0.10583,0 0.42333,-0.50271 0.3175,-0.50271 0.76729,-1.34937 0.4498,-0.84667 0.97896,-1.87854 0.55563,-1.03188 1.11125,-2.09021 0.55562,-1.05833 1.08479,-1.98437 0.52917,-0.92604 0.9525,-1.56104 0.0265,-0.13229 0.0265,-0.21167 0,-0.10583 0.0265,-0.23812 0.0529,-0.44979 0.34395,-0.68792 0.3175,-0.23812 0.68792,-0.3175 0.37042,-0.10583 0.74083,-0.0794 0.39688,0 0.635,0.0265 z"
         id="path390" /><path
         d="m 160.77555,177.85353 q 0,0.0794 0.0529,0.29104 0.0794,0.18521 0.13229,0.39687 0.0794,0.21167 0.13229,0.42334 0.0794,0.18521 0.0794,0.23812 -0.0264,0.29104 -0.0794,0.50271 -0.0529,0.18521 -0.10583,0.34396 -0.0529,0.10583 -0.18521,0.18521 -0.10584,0.0529 -0.15875,0.10583 -0.0529,0.0794 -0.0529,0.13229 0.0265,0.0265 -0.0265,0.0794 -0.0529,0.0529 -0.13229,0.0794 -0.0794,0.0265 -0.13229,0.0794 -0.13229,0.0529 -0.29104,0.0529 h -0.13229 q -0.42334,0 -1.13771,-1.05833 -0.71437,-1.08479 -1.53458,-2.83104 -0.13229,0.0529 -0.29104,0.10584 -0.13229,0.0529 -0.29104,0.10583 -0.4498,-0.0529 -1.16417,0 -0.71437,0.0265 -1.53458,0.10583 -0.82021,0.0794 -1.66687,0.21167 -0.82021,0.10583 -1.48167,0.18521 -0.44979,0.87312 -0.9525,1.74624 -0.47625,0.84667 -1.00541,1.69334 -0.10584,0.0529 -0.13229,-0.10584 -0.0265,-0.15875 -0.15875,-0.26458 -0.0529,-0.0529 -0.18521,0 -0.13229,0.0794 -0.21167,0 -0.0265,-0.0265 -0.0529,-0.15875 -0.0265,-0.15875 -0.0529,-0.29104 l -0.0529,-0.37042 q -0.10583,0 -0.21166,-0.0794 -0.21167,-0.10584 -0.29105,-0.37042 -0.0264,-0.0529 -0.0264,-0.18521 0.0264,-0.15875 0.0529,-0.37041 0.0265,-0.21167 0.0529,-0.50271 -0.0794,0.10583 -0.15875,0.15875 -0.15875,0.10583 -0.18521,0 -0.0529,-0.26458 -0.0529,-0.50271 -0.0264,-0.26458 0.0265,-0.47625 0.18521,-0.55562 0.74084,-2.01083 0.58208,-1.48166 1.24354,-3.51895 0.66145,-2.03729 1.21708,-4.49791 0.58208,-2.48708 0.76729,-5.05354 1.5875,-0.21167 2.53999,-0.13229 0.97896,0.0529 1.45521,0.34396 0.76729,-0.0265 1.37583,0.29104 0.635,0.29104 0.74084,1.16416 0.0794,0.71438 0.23812,1.98438 0.18521,1.24354 0.58208,2.98978 0.39688,1.74625 1.08479,3.96875 0.71438,2.2225 1.87854,4.89478 0.0265,0.10584 -0.0265,0.0794 -0.0264,-0.0265 -0.10583,-0.0794 -0.0529,-0.0794 -0.10583,-0.10583 -0.0265,-0.0529 -0.0265,0.0265 z m -8.30791,-3.91583 q 0.84667,-0.0265 1.71979,0.0265 0.89958,0.0265 1.74625,0.10583 -0.47625,-1.1377 -0.92604,-2.30187 -0.44979,-1.19062 -0.84667,-2.38125 -0.42333,1.24354 -0.84666,2.38125 -0.39688,1.11125 -0.84667,2.16958 z"
         id="path392" /><path
         d="m 174.32217,169.25458 q 0,1.00542 -0.29105,1.79917 -0.29104,0.76729 -0.76729,1.37583 -0.47625,0.58208 -1.1377,1.03187 -0.635,0.44979 -1.34938,0.76729 0.76729,1.37583 1.05833,2.93687 0.3175,1.53458 0.0265,2.75167 0.0529,-0.92604 -0.0794,-1.69333 -0.13229,-0.7673 -0.3175,-1.32292 -0.23813,-0.66146 -0.52917,-1.16416 0.26459,0.95249 0.44979,1.82562 0.15875,0.74083 0.23813,1.50812 0.10583,0.74083 -0.0265,1.16417 -0.0265,-0.0265 -0.0529,-0.0529 0,-0.0265 -0.0264,-0.0529 l -0.0529,-0.0529 q -0.0794,0.15875 -0.18521,0.26458 -0.0794,0.10583 -0.15875,0.18521 -0.0794,0.10583 -0.13229,0.10583 -0.0529,0.0265 -0.15875,0.0265 -0.10583,0.0265 -0.23813,0.0529 -0.13229,0.0265 -0.29104,0.0794 l -0.23812,-0.26458 q -0.39688,-1.56104 -1.21708,-2.91042 -0.82021,-1.37583 -1.69333,-2.48708 -0.71438,0.10584 -1.32292,0.1323 -0.60854,0.0265 -1.03187,0.0265 h -0.15875 q -0.0529,0.60854 -0.0794,1.11125 -0.0265,0.50271 -0.0529,0.87313 -0.0265,0.42333 -0.0529,0.74083 -0.0529,0.10583 -0.13229,0.21167 -0.0529,0.10583 -0.13229,0.23812 -0.0794,0.13229 -0.18521,0.29104 -0.0529,0.10583 -0.15875,0.26458 -0.0794,0.15875 -0.15875,0.34396 -0.10583,0.21167 -0.21167,0.44979 -0.0794,0.0265 -0.18521,0.0794 -0.1852,0.10583 -0.3175,0.26458 -0.0265,0.0529 -0.0529,0.13229 -0.0265,0.0529 -0.0794,0.15875 -0.0529,0.10584 -0.0794,0.23813 l -0.21167,-0.0265 -0.3175,0.50271 -0.10583,-0.0529 q -0.10583,-0.0529 -0.13229,-0.0529 -0.10584,0.0529 -0.18521,0.18521 -0.0529,0.15875 -0.13229,0.15875 -0.0265,-0.15875 -0.0529,-0.79375 -0.0265,-0.635 -0.0794,-1.5875 -0.0265,-0.95249 -0.0794,-2.14312 -0.0265,-1.21708 -0.0529,-2.53999 -0.60854,-0.37042 -1.11124,-1.00542 -0.50271,-0.635 -0.79375,-1.56104 -0.0265,-0.0794 -0.10584,-0.44979 -0.0529,-0.37042 0,-0.635 0.0529,0.26458 0.1323,0.58208 0.10583,0.29104 0.21166,0.58209 0.10584,0.26458 0.21167,0.47624 0.13229,0.21167 0.23812,0.29105 -0.37041,-0.76729 -0.5027,-1.42875 -0.1323,-0.68792 -0.0265,-1.13771 0.21166,0.66146 1.66687,1.24354 -0.0529,-1.32291 -0.13229,-2.56645 -0.0529,-1.24354 -0.10583,-2.32833 -0.7673,0.10583 -1.61396,0.3175 -0.3175,-0.10584 -0.60854,-0.52917 -0.29104,-0.44979 -0.42333,-0.97896 -0.15875,-0.52916 -0.10584,-1.05833 0.0529,-0.52917 0.39688,-0.84667 0.1852,-0.15875 0.92604,-0.39687 0.76729,-0.26458 1.90499,-0.47625 1.13771,-0.21167 2.51354,-0.3175 1.40229,-0.10583 2.80458,0.0265 1.42875,0.10583 2.77812,0.52917 1.34938,0.39687 2.38125,1.24354 1.03187,0.8202 1.66687,2.14312 0.635,1.29645 0.60855,3.20145 z m -2.06375,-0.74083 q 0.0265,-0.55562 -0.44979,-1.05833 -0.44979,-0.50271 -1.37584,-0.84667 -0.92604,-0.37041 -2.30187,-0.55562 -1.34937,-0.18521 -3.12208,-0.10584 0.0265,0.21167 0.0265,0.4498 0,0.21166 0,0.47624 -0.0265,1.27 -0.0794,2.56646 -0.0529,1.27 -0.13229,2.51354 1.19062,0 2.48708,-0.29104 1.29645,-0.3175 2.38124,-0.79375 1.08479,-0.47625 1.79917,-1.08479 0.71437,-0.60854 0.76729,-1.27 z"
         id="path394" /><path
         d="m 174.42802,162.40188 q 0,-0.0794 0.0794,-0.21166 0.0794,-0.1323 0.26459,-0.18521 0.42333,-0.10584 1.08479,-0.15875 0.68791,-0.0529 1.32291,0.29104 0.66146,0.3175 1.11125,1.19062 0.44979,0.87313 0.42333,2.59292 -0.0529,1.93145 -0.15875,3.91582 -0.0794,1.98438 -0.21166,3.62479 -0.1323,1.905 -0.29104,3.70416 l -0.0794,0.15875 q -0.0529,0.0794 -0.13229,0.21167 -0.0529,0.10583 -0.15875,0.26458 -0.0529,0.10584 -0.15875,0.26459 -0.0794,0.15875 -0.15875,0.34395 -0.10583,0.21167 -0.21167,0.44979 -0.0794,0.0265 -0.18521,0.0794 -0.1852,0.10583 -0.31749,0.26458 -0.0265,0.0529 -0.0529,0.13229 -0.0265,0.0529 -0.0794,0.15875 -0.0529,0.10584 -0.0794,0.23813 l -0.21167,-0.0265 -0.3175,0.50271 -0.10583,-0.0529 q -0.10583,-0.0529 -0.13229,-0.0529 -0.10584,0.0529 -0.18521,0.21167 -0.0529,0.13229 -0.13229,0.13229 -0.0265,-0.18521 -0.0794,-0.9525 -0.0264,-0.76729 -0.0529,-1.87854 -0.0265,-1.1377 -0.0794,-2.53999 -0.0265,-1.42875 -0.0794,-2.93687 -0.0529,-1.50813 -0.10584,-3.01625 -0.0529,-1.50812 -0.13229,-2.80458 -0.0794,-1.32291 -0.18521,-2.32833 -0.10583,-1.03187 -0.21166,-1.5875 z"
         id="path396" /><path
         d="m 203.53212,166.95271 q 0.0265,2.2225 0.15875,4.20687 0.13229,1.95791 0.29104,3.49249 0.18521,1.79917 0.39688,3.33375 l -0.26459,0.9525 -0.26458,0.0529 -0.10583,0.66145 -0.21167,0.79375 -0.34396,0.0529 -0.0529,0.60854 q -0.0794,-0.0265 -0.15875,-0.0265 -0.15875,0 -0.26459,0.0529 -0.0529,0.0265 -0.0794,0.13229 0,0.13229 -0.0529,0.15875 -0.52916,-0.97896 -0.97895,-2.27541 -0.4498,-1.32292 -0.82021,-2.83104 -0.37042,-1.50813 -0.66146,-3.09562 -0.29104,-1.61396 -0.50271,-3.14854 -0.34395,1.05833 -0.76729,2.27541 -0.39687,1.19063 -0.8202,2.38125 -0.39688,1.19062 -0.79375,2.30187 -0.39688,1.11125 -0.71438,1.95792 -0.0794,0.21166 -0.50271,0.42333 -0.42333,0.21167 -0.92604,0.21167 -0.5027,0 -0.95249,-0.3175 -0.4498,-0.34396 -0.52917,-1.24354 -0.23813,-0.55563 -0.55562,-1.29646 -0.29105,-0.74083 -0.66146,-1.61396 -0.34396,-0.87312 -0.74083,-1.82562 -0.39688,-0.97896 -0.82021,-1.98437 -0.15875,1.50812 -0.34396,2.77812 -0.15875,1.27 -0.29104,2.19604 -0.15875,1.08479 -0.29104,2.01083 l -0.34396,-0.0529 -1.00542,1.77271 -0.68791,0.21166 -0.21167,0.42334 q -0.13229,-0.0794 -0.23812,-0.15875 -0.10584,-0.0529 -0.23813,-0.0794 -0.10583,-0.0529 -0.18521,0 -0.15875,0.0794 -0.29104,0.37042 -0.10583,0.3175 -0.23812,0.3175 0.0794,-0.82021 0.15875,-2.16958 0.10583,-1.37583 0.18521,-3.04271 0.10583,-1.66687 0.15875,-3.49249 0.0794,-1.82562 0.10583,-3.54541 0.0265,-1.71979 0,-3.20146 -0.0265,-1.48166 -0.10583,-2.46062 0,-0.0265 -0.0529,-0.0794 0.0265,0 0.0529,-0.0264 -0.0265,-0.23813 -0.0529,-0.42334 0,-0.21166 -0.0529,-0.37041 0.3175,-0.10584 0.66146,-0.15875 0.29104,-0.0529 0.66146,-0.0529 0.39687,0 0.82021,0.10583 0.52916,-0.10583 1.05833,-0.10583 0.55562,0 1.00541,0.13229 0.47625,0.13229 0.82021,0.42334 0.34396,0.26458 0.47625,0.71437 0.79375,2.75166 1.45521,5.18583 0.68791,2.4077 1.11124,4.02166 0.55563,-1.48167 1.13771,-2.91042 0.60854,-1.42874 1.16417,-2.67228 0.55562,-1.24354 1.00541,-2.19604 0.47625,-0.97896 0.74083,-1.50813 -0.0265,-0.1852 -0.0265,-0.3175 0,-0.13229 0,-0.26458 0.39687,-0.23812 1.03187,-0.39687 0.635,-0.18521 1.29646,-0.21167 0.66145,-0.0265 1.19062,0.15875 0.55562,0.18521 0.79375,0.635 0.13229,0.26458 0.18521,0.60854 0.0529,0.34396 0.0529,0.82021 0.0265,0.47625 0.0265,1.11125 0,0.635 0,1.50812 z"
         id="path398" /><path
         d="m 204.8815,162.40188 q 0,-0.0794 0.0794,-0.21166 0.0794,-0.1323 0.26458,-0.18521 0.42333,-0.10584 1.08479,-0.15875 0.68792,-0.0529 1.32291,0.29104 0.66146,0.3175 1.11125,1.19062 0.44979,0.87313 0.42334,2.59292 -0.0529,1.93145 -0.15875,3.91582 -0.0794,1.98438 -0.21167,3.62479 -0.13229,1.905 -0.29104,3.70416 l -0.0794,0.15875 q -0.0529,0.0794 -0.13229,0.21167 -0.0529,0.10583 -0.15875,0.26458 -0.0529,0.10584 -0.15875,0.26459 -0.0794,0.15875 -0.15875,0.34395 -0.10583,0.21167 -0.21166,0.44979 -0.0794,0.0265 -0.18521,0.0794 -0.18521,0.10583 -0.3175,0.26458 -0.0265,0.0529 -0.0529,0.13229 -0.0265,0.0529 -0.0794,0.15875 -0.0529,0.10584 -0.0794,0.23813 l -0.21166,-0.0265 -0.3175,0.50271 -0.10584,-0.0529 q -0.10583,-0.0529 -0.13229,-0.0529 -0.10583,0.0529 -0.18521,0.21167 -0.0529,0.13229 -0.13229,0.13229 -0.0265,-0.18521 -0.0794,-0.9525 -0.0265,-0.76729 -0.0529,-1.87854 -0.0265,-1.1377 -0.0794,-2.53999 -0.0265,-1.42875 -0.0794,-2.93687 -0.0529,-1.50813 -0.10583,-3.01625 -0.0529,-1.50812 -0.13229,-2.80458 -0.0794,-1.32291 -0.18521,-2.32833 -0.10584,-1.03187 -0.21167,-1.5875 z"
         id="path400" /><path
         d="m 223.29647,165.33875 q -0.0794,3.20146 -0.0794,5.45041 0.0265,2.24896 0.0794,3.78354 0.0794,1.53458 0.1852,2.46062 0.10584,0.89958 0.18521,1.42875 0.0794,0.52917 0.10584,0.79375 0.0529,0.23812 0,0.42333 -0.0794,0.21167 -0.39688,0.39688 -0.3175,0.1852 -0.74083,0.3175 -0.42333,0.13229 -0.89958,0.1852 -0.44979,0.0794 -0.82021,0.0529 -0.52917,-0.0529 -0.84667,-0.39687 -0.29104,-0.37042 -0.42333,-1.19063 -0.68791,-1.03187 -1.40229,-2.22249 -0.68791,-1.19063 -1.37583,-2.43417 -0.68792,-1.27 -1.34937,-2.53999 -0.66146,-1.29646 -1.29646,-2.51354 -0.13229,1.61395 -0.23813,3.12208 -0.10583,1.48166 -0.21166,2.64583 -0.10583,1.37583 -0.21167,2.56645 l -0.15875,-0.0529 -0.66146,1.29646 -0.39687,0.21167 -0.3175,0.87312 -0.3175,-0.26458 -0.37041,0.89958 h -0.18521 q -0.0794,0 -0.15875,0.0265 -0.0794,0.0265 -0.13229,0.0529 -0.1323,0.0794 -0.3175,0.3175 -0.0265,-0.21167 -0.0529,-1.00542 -0.0265,-0.82021 -0.0529,-2.01083 0,-1.19062 -0.0265,-2.67229 0,-1.50812 -0.0265,-3.06916 0,-1.56104 -0.0529,-3.09562 -0.0265,-1.56104 -0.0794,-2.8575 -0.0529,-1.32291 -0.15875,-2.27541 -0.0794,-0.9525 -0.1852,-1.37583 0.13229,-0.0265 0.29104,-0.0794 0.13229,-0.0529 0.34396,-0.0794 0.21166,-0.0265 0.44979,-0.0794 0.55562,-0.23812 1.16416,-0.3175 0.635,-0.0794 1.19063,0.0529 0.58208,0.10583 1.05833,0.44979 0.47625,0.34396 0.71437,0.97896 0.50271,1.34937 1.08479,2.77812 0.60854,1.42875 1.21708,2.80458 0.60854,1.34937 1.16417,2.56645 0.55562,1.21708 1.00541,2.14312 0.0794,-1.7727 0.21167,-3.73062 0.13229,-1.95791 0.29104,-3.70416 0.18521,-1.7727 0.37042,-3.14854 0.18521,-1.37583 0.34396,-1.98437 0.0529,0.0529 0.0794,0.3175 0.0529,0.23813 0.10583,0.29104 0.0529,0.0529 0.10584,-0.13229 0.0529,-0.21167 0.10583,-0.15875 0.0265,0.0265 0.0794,0.18521 0.0529,0.13229 0.10583,0.3175 0.0529,0.18521 0.10583,0.34396 0.0529,0.15875 0.0794,0.18521 0.0794,0.0794 0.29104,0.0794 0.10583,0 0.18521,-0.0265 0.21166,0.37042 0.42333,0.76729 0.18521,0.34396 0.37042,0.76729 0.1852,0.39688 0.37041,0.84667 l 0.0794,0.23812 z"
         id="path402" /><path
         d="m 236.55208,177.85353 q 0,0.0794 0.0529,0.29104 0.0794,0.18521 0.13229,0.39687 0.0794,0.21167 0.1323,0.42334 0.0794,0.18521 0.0794,0.23812 -0.0265,0.29104 -0.0794,0.50271 -0.0529,0.18521 -0.10584,0.34396 -0.0529,0.10583 -0.18521,0.18521 -0.10583,0.0529 -0.15875,0.10583 -0.0529,0.0794 -0.0529,0.13229 0.0265,0.0265 -0.0265,0.0794 -0.0529,0.0529 -0.13229,0.0794 -0.0794,0.0265 -0.13229,0.0794 -0.13229,0.0529 -0.29104,0.0529 h -0.1323 q -0.42333,0 -1.1377,-1.05833 -0.71438,-1.08479 -1.53458,-2.83104 -0.1323,0.0529 -0.29105,0.10584 -0.13229,0.0529 -0.29104,0.10583 -0.44979,-0.0529 -1.16416,0 -0.71438,0.0265 -1.53458,0.10583 -0.82021,0.0794 -1.66688,0.21167 -0.8202,0.10583 -1.48166,0.18521 -0.44979,0.87312 -0.9525,1.74624 -0.47625,0.84667 -1.00542,1.69334 -0.10583,0.0529 -0.13229,-0.10584 -0.0265,-0.15875 -0.15875,-0.26458 -0.0529,-0.0529 -0.1852,0 -0.1323,0.0794 -0.21167,0 -0.0265,-0.0265 -0.0529,-0.15875 -0.0265,-0.15875 -0.0529,-0.29104 l -0.0529,-0.37042 q -0.10583,0 -0.21167,-0.0794 -0.21166,-0.10584 -0.29104,-0.37042 -0.0265,-0.0529 -0.0265,-0.18521 0.0265,-0.15875 0.0529,-0.37041 0.0265,-0.21167 0.0529,-0.50271 -0.0794,0.10583 -0.15875,0.15875 -0.15875,0.10583 -0.18521,0 -0.0529,-0.26458 -0.0529,-0.50271 -0.0265,-0.26458 0.0265,-0.47625 0.18521,-0.55562 0.74083,-2.01083 0.58209,-1.48166 1.24354,-3.51895 0.66146,-2.03729 1.21708,-4.49791 0.58209,-2.48708 0.7673,-5.05354 1.58749,-0.21167 2.53999,-0.13229 0.97896,0.0529 1.45521,0.34396 0.76729,-0.0265 1.37583,0.29104 0.635,0.29104 0.74083,1.16416 0.0794,0.71438 0.23813,1.98438 0.18521,1.24354 0.58208,2.98978 0.39687,1.74625 1.08479,3.96875 0.71437,2.2225 1.87854,4.89478 0.0265,0.10584 -0.0265,0.0794 -0.0265,-0.0265 -0.10583,-0.0794 -0.0529,-0.0794 -0.10584,-0.10583 -0.0265,-0.0529 -0.0265,0.0265 z m -8.30791,-3.91583 q 0.84667,-0.0265 1.71979,0.0265 0.89958,0.0265 1.74625,0.10583 -0.47625,-1.1377 -0.92604,-2.30187 -0.44979,-1.19062 -0.84667,-2.38125 -0.42333,1.24354 -0.84666,2.38125 -0.39688,1.11125 -0.84667,2.16958 z"
         id="path404" /><path
         d="m 253.7235,166.95271 q 0.0265,2.2225 0.15875,4.20687 0.13229,1.95791 0.29104,3.49249 0.18521,1.79917 0.39687,3.33375 l -0.26458,0.9525 -0.26458,0.0529 -0.10584,0.66145 -0.21166,0.79375 -0.34396,0.0529 -0.0529,0.60854 q -0.0794,-0.0265 -0.15875,-0.0265 -0.15875,0 -0.26458,0.0529 -0.0529,0.0265 -0.0794,0.13229 0,0.13229 -0.0529,0.15875 -0.52917,-0.97896 -0.97896,-2.27541 -0.44979,-1.32292 -0.82021,-2.83104 -0.37041,-1.50813 -0.66145,-3.09562 -0.29104,-1.61396 -0.50271,-3.14854 -0.34396,1.05833 -0.76729,2.27541 -0.39688,1.19063 -0.82021,2.38125 -0.39687,1.19062 -0.79375,2.30187 -0.39687,1.11125 -0.71437,1.95792 -0.0794,0.21166 -0.50271,0.42333 -0.42333,0.21167 -0.92604,0.21167 -0.50271,0 -0.9525,-0.3175 -0.44979,-0.34396 -0.52916,-1.24354 -0.23813,-0.55563 -0.55563,-1.29646 -0.29104,-0.74083 -0.66146,-1.61396 -0.34395,-0.87312 -0.74083,-1.82562 -0.39687,-0.97896 -0.82021,-1.98437 -0.15875,1.50812 -0.34395,2.77812 -0.15875,1.27 -0.29105,2.19604 -0.15875,1.08479 -0.29104,2.01083 l -0.34395,-0.0529 -1.00542,1.77271 -0.68792,0.21166 -0.21166,0.42334 q -0.13229,-0.0794 -0.23813,-0.15875 -0.10583,-0.0529 -0.23812,-0.0794 -0.10583,-0.0529 -0.18521,0 -0.15875,0.0794 -0.29104,0.37042 -0.10583,0.3175 -0.23813,0.3175 0.0794,-0.82021 0.15875,-2.16958 0.10584,-1.37583 0.18521,-3.04271 0.10584,-1.66687 0.15875,-3.49249 0.0794,-1.82562 0.10584,-3.54541 0.0265,-1.71979 0,-3.20146 -0.0265,-1.48166 -0.10584,-2.46062 0,-0.0265 -0.0529,-0.0794 0.0265,0 0.0529,-0.0264 -0.0265,-0.23813 -0.0529,-0.42334 0,-0.21166 -0.0529,-0.37041 0.3175,-0.10584 0.66146,-0.15875 0.29104,-0.0529 0.66145,-0.0529 0.39688,0 0.82021,0.10583 0.52917,-0.10583 1.05833,-0.10583 0.55563,0 1.00542,0.13229 0.47625,0.13229 0.82021,0.42334 0.34395,0.26458 0.47624,0.71437 0.79375,2.75166 1.45521,5.18583 0.68792,2.4077 1.11125,4.02166 0.55562,-1.48167 1.13771,-2.91042 0.60854,-1.42874 1.16416,-2.67228 0.55563,-1.24354 1.00542,-2.19604 0.47625,-0.97896 0.74083,-1.50813 -0.0265,-0.1852 -0.0265,-0.3175 0,-0.13229 0,-0.26458 0.39688,-0.23812 1.03188,-0.39687 0.63499,-0.18521 1.29645,-0.21167 0.66146,-0.0265 1.19063,0.15875 0.55562,0.18521 0.79374,0.635 0.1323,0.26458 0.18521,0.60854 0.0529,0.34396 0.0529,0.82021 0.0265,0.47625 0.0265,1.11125 0,0.635 0,1.50812 z"
         id="path406" /><path
         d="m 254.041,171.31833 q 0,-2.56646 0.44979,-4.25979 0.47625,-1.69333 1.03188,-2.69874 0.55562,-1.03188 1.03187,-1.45521 0.50271,-0.42333 0.55563,-0.44979 0.47625,-0.26458 1.05833,-0.13229 0.58208,0.13229 1.08479,0.47625 0.50271,0.34395 0.82021,0.79375 0.34395,0.42333 0.34395,0.79374 0,0.26459 -0.37041,0.68792 -0.34396,0.39687 -0.79375,1.16417 -0.42333,0.76729 -0.79375,1.98437 -0.34396,1.21708 -0.34396,3.0427 0,1.93146 0.39688,3.22792 0.39687,1.29645 0.89958,2.0902 0.52916,0.79375 1.03187,1.13771 0.50271,0.34396 0.68792,0.37041 0.3175,0.0265 0.84666,-0.39687 0.55563,-0.42333 1.08479,-1.34937 0.52917,-0.92604 0.89959,-2.32833 0.39687,-1.42875 0.39687,-3.38667 0,-1.21708 -0.18521,-2.14312 -0.15875,-0.92604 -0.42333,-1.5875 -0.26458,-0.68791 -0.635,-1.1377 -0.34396,-0.44979 -0.68792,-0.74084 -0.87312,-0.66145 -1.93145,-0.68791 l -0.18521,-0.0529 0.21167,-0.10583 q 0.15875,-0.0794 0.13229,-0.18521 -0.0265,-0.0265 0.3175,0 0.34396,0.0265 0.79375,0.15875 0.47625,0.10583 0.92604,0.34396 0.47625,0.21166 0.68791,0.58208 -0.1852,-0.47625 -0.66145,-0.74083 -0.47625,-0.26458 -1.00542,-0.39688 -0.50271,-0.15875 -0.89958,-0.21166 -0.39688,-0.0529 -0.39688,-0.0794 0,-0.13229 0.0794,-0.3175 0.10583,-0.21166 0.42333,-0.34396 0.55563,-0.26458 1.29646,-0.29104 0.76729,-0.0264 1.56104,0.23813 0.79375,0.23812 1.56104,0.82021 0.76729,0.55562 1.37583,1.48166 0.60854,0.92604 0.97896,2.27541 0.37041,1.32292 0.37041,3.12208 0,2.51354 -0.635,4.36562 -0.635,1.85208 -1.56104,3.09562 -0.89958,1.21709 -1.93145,1.82563 -1.03188,0.60854 -1.82563,0.60854 -2.14312,0 -3.6777,-0.87313 -1.50812,-0.89958 -2.48708,-2.24895 -0.97896,-1.34938 -1.45521,-2.96333 -0.44979,-1.64042 -0.44979,-3.12208 z"
         id="path408" /></g><text
       xml:space="preserve"
       style="font-size:26.4583px;font-family:BlowBrush;-inkscape-font-specification:BlowBrush;display:none;opacity:1;fill:#0a204d;fill-opacity:1;stroke:none;stroke-width:3;stroke-linecap:round;stroke-dasharray:none;stroke-opacity:1;paint-order:markers fill stroke;filter:url(#filter1340)"
       x="47.878017"
       y="180.49936"
       id="text376"><tspan
         id="tspan374"
         style="font-size:26.4583px;fill:#0a204d;fill-opacity:1;stroke-width:3"
         x="0"
         y="0">SEMBONYARI MINAMO</tspan></text></g><g
     id="layer8"
     style="opacity:1"><path
       id="rect19436"
       style="opacity:1;fill:#00000f;fill-opacity:1;stroke:none;stroke-width:3;stroke-linecap:round;paint-order:markers fill stroke;filter:url(#filter1340)"
       d="m 62.096539,108.27359 7.590749,5.4295 -24.644474,34.85754 -3.346411,-2.4387 -17.975316,23.82634 -4.058942,-3.00484 z" /></g></svg>
