<?xml version="1.0" encoding="UTF-8" standalone="no"?>
<!-- Created with Inkscape (http://www.inkscape.org/) -->

<svg
   width="3000mm"
   height="3000mm"
   viewBox="0 0 3000 3000"
   version="1.1"
   id="svg250"
   xmlns="http://www.w3.org/2000/svg"
   xmlns:svg="http://www.w3.org/2000/svg">
  <defs
     id="defs247" />
  <g
     id="layer3"
     transform="matrix(0.49999997,0,0,0.49999997,1376.6713,25.348482)"
     style="fill-opacity:1">
    <g
       id="layer2"
       style="display:inline;fill-opacity:1;stroke:none"
       transform="translate(-79.305814)">
      <path
         id="rect725"
         style="fill-opacity:1;stroke:none;paint-order:markers fill stroke"
         d="M 1120.837,1155.9089 894.04729,1045.2962 194.30162,2479.9874 651.93533,2117.2999 Z" />
      <path
         id="path878"
         style="fill-opacity:1;stroke:none;paint-order:markers fill stroke"
         d="m 2037.7748,1155.9089 226.7897,-110.6127 699.7457,1434.6912 -457.6337,-362.6875 z" />
    </g>
    <g
       id="layer1"
       style="display:inline;fill-opacity:1;stroke:none">
      <path
         id="path731"
         style="display:inline;fill-opacity:1;stroke:none"
         d="M 2615.0993,1032.7569 C 2618.2069,893.52674 2510.2442,670.02397 2305.8778,503.78191 2101.5114,337.53985 1800.7584,228.57215 1499.9988,228.57208 1199.2393,228.572 898.48586,337.53987 694.11952,503.78194 489.75319,670.02401 381.79269,893.52237 384.90071,1032.7553 c 3.10802,139.2329 117.28579,194.1847 231.46612,249.1377 294.54392,-52.8413 589.08797,-105.6827 883.63227,-105.6827 294.5442,10e-5 589.0883,52.8414 883.6327,105.6827 114.18,-54.953 228.36,-109.906 231.4675,-249.1361 z" />
    </g>
    <g
       id="layer4"
       style="fill:none;fill-opacity:1;stroke-width:30;stroke-dasharray:none">
      <path
         style="fill:none;fill-opacity:1;stroke-width:30;stroke-dasharray:none;paint-order:markers fill stroke"
         transform="rotate(-90)"
         d="m -2943.48,1493.44 c 29.18,13.03 58.37,0.14 87.55,13.12 29.18,12.99 58.37,62.05 87.55,143.75 29.18,81.7 58.37,181.38 87.55,87.27 29.18,-94.12 58.37,-380.71 87.55,-475.16 29.18,-94.44 58.37,5.54 87.55,87.27 29.18,81.73 58.37,130.71 87.55,143.75 29.18,13.03 58.37,0.14 87.55,13.12 29.18,12.99 58.37,62.05 87.55,143.75 29.18,81.7 58.37,181.38 87.55,87.27 29.18,-94.12 58.37,-380.71 87.55,-475.16 29.18,-94.44 58.37,5.54 87.55,87.27 29.19,81.73 58.37,130.71 87.55,143.75 29.19,13.03 58.37,0.14 87.55,13.12 29.19,12.99 58.37,62.05 87.55,143.75 29.19,81.7 58.37,181.38 87.55,87.27 29.19,-94.12 58.37,-380.71 87.55,-475.16 29.19,-94.44 58.37,5.54 87.55,87.27 29.19,81.73 58.37,130.71 87.55,143.75 29.19,13.03 58.37,0.14 87.55,13.12 29.19,12.99 58.37,62.05 87.55,143.75 29.19,81.7 58.37,181.38 87.55,87.27 29.19,-94.12 58.37,-380.71 87.55,-475.16 29.187,-94.44 58.37,5.54 87.553,87.27"
         title="sin(x+sin(1*x+pi/2)+pi/2)"
         id="path7830" />
      <path
         style="fill:none;fill-opacity:1;stroke-width:30;stroke-dasharray:none;paint-order:markers fill stroke"
         d="m 1621.2179,2937.7037 c -94.12,-29.18 -264.3479,-64.5335 -358.7979,-93.7135 -94.44,-29.18 5.54,-58.37 87.27,-87.55 81.73,-29.18 130.71,-58.37 143.75,-87.55 13.03,-29.18 0.14,-58.37 13.12,-87.55 12.99,-29.18 62.05,-58.37 143.75,-87.55 81.7,-29.18 181.38,-58.37 87.27,-87.55 -94.12,-29.18 -380.71,-58.37 -475.16,-87.55 -94.44,-29.18 5.54,-58.37 87.27,-87.55 81.73,-29.19 130.71,-58.37 143.75,-87.55 13.03,-29.19 0.14,-58.37 13.12,-87.55 12.99,-29.19 62.05,-58.37 143.75,-87.55 81.7,-29.19 181.38,-58.37 87.27,-87.55 -94.12,-29.19 -380.71,-58.37 -475.16,-87.55 -94.44,-29.19 5.54,-58.37 87.27,-87.55 81.73,-29.19 130.71,-58.37 143.75,-87.55 13.03,-29.19 0.14,-58.37 13.12,-87.55 12.99,-29.19 62.05,-58.37 143.75,-87.55 81.7,-29.19 181.38,-58.37 87.27,-87.55 -94.12,-29.19 -380.71,-58.37 -475.16,-87.55 -94.44,-29.187 98.6297,-98.127 180.3597,-127.31"
         title="sin(x+sin(1*x+pi/2)+pi/2)"
         id="path7857" />
    </g>
  </g>
  <g
     id="layer5"
     transform="matrix(0.67662539,0,0,0.67662539,319.37873,330.41837)"
     style="fill-opacity:1;stroke-width:14.7792;stroke-dasharray:none">
    <g
       id="layer7-5-3-5"
       transform="translate(2152.8649,428.15703)"
       style="fill-opacity:1;stroke:none;stroke-width:14.7792;stroke-dasharray:none">
      <path
         id="rect492-6-8-5-6"
         style="fill-opacity:1;stroke:none;stroke-width:14.7792;stroke-dasharray:none;paint-order:markers fill stroke"
         d="m 979.22059,1561.0429 562.41771,-87.2714 -34.9086,139.6344 -585.69021,-3.8788 z" />
      <path
         id="rect492-6-8-5-5-2"
         style="fill-opacity:1;stroke:none;stroke-width:14.7792;stroke-dasharray:none;paint-order:markers fill stroke"
         d="m 891.42386,1813.9961 -65.12936,-489.0187 137.571,42.3154 -27.13351,507.3904 z" />
      <path
         id="rect492-6-8-5-5-2-6"
         style="fill-opacity:1;stroke:none;stroke-width:14.7792;stroke-dasharray:none;paint-order:markers fill stroke"
         d="m 1586.1255,1926.9408 -33.1966,-249.2543 70.1204,21.5683 -13.8301,258.6184 z" />
      <path
         id="rect492-6-8-5-5-2-5"
         style="fill-opacity:1;stroke:none;stroke-width:14.7792;stroke-dasharray:none;paint-order:markers fill stroke"
         d="m 1691.9996,1934.9712 -33.1967,-249.2543 70.1204,21.5682 -13.83,258.6185 z" />
      <path
         id="rect494-7-2-3-4"
         style="fill-opacity:1;stroke:none;stroke-width:14.7792;stroke-dasharray:none;paint-order:markers fill stroke"
         d="m 1320.7092,1497.3406 c -8.3928,-33.8847 97.4292,-34.1376 104.7259,0 36.2683,169.6815 -239.1659,824.6025 -275.3906,961.9262 -25.0982,95.1442 -45.3984,238.0224 -420.98877,294.7209 -451.04136,68.0885 -1352.59134,37.3439 -2061.56843,-142.7513 -258.6772,-65.7095 -669.1993,-201.3319 -935.5515,-483.5631 -302.8236,-320.8769 -276.2635,-802.1196 -276.2635,-802.1196 l 221.8948,-323.5279 c 0,0 -197.0768,573.0728 212.3431,1025.6026 203.5416,224.9734 555.1449,410.5612 895.7989,481.9721 376.31158,78.8856 1111.29167,140.5819 1610.86504,133.8677 289.20694,-3.8868 550.59489,-42.7692 567.29093,-81.4142 74.56423,-172.5878 397.46163,-900.726 356.84413,-1064.7134 z" />
    </g>
    <g
       id="layer7-5-3"
       transform="translate(1321.7568,428.15703)"
       style="fill-opacity:1;stroke:none;stroke-width:14.7792;stroke-dasharray:none">
      <path
         id="rect492-6-8-5"
         style="fill-opacity:1;stroke:none;stroke-width:14.7792;stroke-dasharray:none;paint-order:markers fill stroke"
         d="m 961.76628,1562.9823 484.84302,-91.1502 -34.9086,139.6344 H 903.58518 Z" />
      <path
         id="rect492-6-8-5-5"
         style="fill-opacity:1;stroke:none;stroke-width:14.7792;stroke-dasharray:none;paint-order:markers fill stroke"
         d="m 985.02637,1363.8192 484.84303,-91.1502 -34.9086,139.6344 H 926.84527 Z" />
      <path
         id="rect494-7-2-3"
         style="fill-opacity:1;stroke:none;stroke-width:14.7792;stroke-dasharray:none;paint-order:markers fill stroke"
         d="m 1320.7092,1497.3406 c -8.3928,-33.8847 97.4293,-34.1376 104.7259,0 114.9194,537.6518 -275.3903,961.9267 -275.3903,961.9267 l -186.1793,102.7865 c 0,0 479.5593,-569.267 356.8437,-1064.7132 z" />
    </g>
    <g
       id="layer7-5"
       transform="translate(672.50846,228.9939)"
       style="fill-opacity:1;stroke:none;stroke-width:14.7792;stroke-dasharray:none">
      <path
         id="rect492-6-8"
         style="fill-opacity:1;stroke:none;stroke-width:14.7792;stroke-dasharray:none;paint-order:markers fill stroke"
         d="m 961.76628,1562.9823 484.84302,-91.1502 -34.9086,139.6344 H 903.58518 Z" />
      <path
         id="rect494-7-2"
         style="fill-opacity:1;stroke:none;stroke-width:14.7792;stroke-dasharray:none;paint-order:markers fill stroke"
         d="m 1320.7092,1497.3406 c -8.3928,-33.8847 97.4293,-34.1376 104.7259,0 114.9194,537.6518 -275.3903,961.9267 -275.3903,961.9267 l -186.1793,102.7865 c 0,0 479.5593,-569.267 356.8437,-1064.7132 z" />
      <path
         id="rect494-7-9-0"
         style="fill-opacity:1;stroke:none;stroke-width:14.7792;stroke-dasharray:none;paint-order:markers fill stroke"
         d="m 976.55136,1516.7343 c -8.02115,-33.9746 100.79264,-34.6864 104.72584,0 35.4054,312.2383 -143.51333,376.2375 -143.51333,376.2375 l -180.3611,63.9991 c 0,0 284.22773,-164.5856 219.14859,-440.2366 z" />
    </g>
    <g
       id="layer7"
       style="fill-opacity:1;stroke:none;stroke-width:14.7792;stroke-dasharray:none">
      <path
         id="rect492-6"
         style="fill-opacity:1;stroke:none;stroke-width:14.7792;stroke-dasharray:none;paint-order:markers fill stroke"
         d="m 961.76628,1562.9823 484.84302,-91.1502 -34.9086,139.6344 H 903.58518 Z" />
      <path
         id="rect492-6-2"
         style="fill-opacity:1;stroke:none;stroke-width:14.7792;stroke-dasharray:none;paint-order:markers fill stroke"
         d="m 878.53339,1791.9762 484.84301,-91.1502 -34.9086,139.6344 H 820.35225 Z" />
      <path
         id="rect494-7"
         style="fill-opacity:1;stroke:none;stroke-width:14.7792;stroke-dasharray:none;paint-order:markers fill stroke"
         d="m 1320.7092,1497.3406 c -8.3928,-33.8847 97.4293,-34.1376 104.7259,0 114.9194,537.6518 -275.3903,961.9267 -275.3903,961.9267 l -186.1793,102.7865 c 0,0 479.5593,-569.267 356.8437,-1064.7132 z" />
      <path
         id="rect494-7-9"
         style="fill-opacity:1;stroke:none;stroke-width:14.7792;stroke-dasharray:none;paint-order:markers fill stroke"
         d="m 976.55136,1516.7343 c -8.02115,-33.9746 100.79264,-34.6864 104.72584,0 35.4054,312.2383 -143.51333,376.2375 -143.51333,376.2375 l -180.3611,63.9991 c 0,0 284.22773,-164.5856 219.14859,-440.2366 z" />
    </g>
    <g
       id="layer6"
       transform="translate(6.10997,46.346798)"
       style="fill-opacity:1;stroke:none;stroke-width:14.7792;stroke-dasharray:none">
      <path
         id="rect492"
         style="fill-opacity:1;stroke:none;stroke-width:14.7792;stroke-dasharray:none;paint-order:markers fill stroke"
         d="m 122.93652,1506.9387 628.35628,-81.4534 -34.90863,139.6344 -651.628702,-9.6968 z" />
      <path
         id="rect494"
         style="fill-opacity:1;stroke:none;stroke-width:14.7792;stroke-dasharray:none;paint-order:markers fill stroke"
         d="m 407.26733,1187.7616 c -8.3928,-33.8847 97.42924,-34.1376 104.72589,0 114.9194,537.6518 -275.39029,961.9267 -275.39029,961.9267 L 50.42359,2252.4748 c 0,0 479.55928,-569.267 356.84374,-1064.7132 z" />
    </g>
    <g
       aria-label="NATAKURAGE"
       id="text1358"
       style="font-size:312.827px;font-family:Arial;-inkscape-font-specification:Arial;letter-spacing:19.5517px;fill-opacity:1;stroke:none;stroke-width:14.7792;stroke-dasharray:none;paint-order:markers fill stroke">
      <path
         d="m 319.57309,2481.4702 q -19.13394,32.6734 -31.99816,55.9447 -12.59045,23.4227 -20.82083,39.6047 -7.9566,16.3333 -12.15851,26.521 -4.05057,9.9139 -6.2561,15.8435 -2.20554,5.9297 -3.4452,8.8188 -0.81453,2.7667 -2.4215,4.3805 -2.03209,1.7362 -6.37686,1.8365 -4.34477,0.1004 -9.48198,-0.9522 -5.13721,-1.0526 -10.36795,-3.2292 -5.1083,-1.7515 -8.78988,-4.1441 -5.17292,-3.5745 -6.49082,-8.9498 -0.89277,-5.4977 2.42998,-14.7416 -1.21588,-14.6124 -1.79748,-31.0188 -0.30783,-16.255 -0.31296,-33.0577 0.14621,-17.0764 0.5662,-34.0014 0.57133,-17.1989 0.96241,-33.425 -10.60087,15.9439 -20.32259,30.944 -9.57038,14.7263 -17.32463,26.1673 -8.965,13.6312 -16.87059,25.346 l -1.34,-1.4557 -14.26036,9.6317 -5.31745,-0.08 -8.27972,7.2186 -1.77193,-4.5539 -8.97861,7.1897 -1.91647,-1.0594 q -0.82134,-0.454 -1.79402,-0.6343 -0.97269,-0.1802 -1.67159,-0.2092 -1.82294,0.065 -5.101496,1.4693 0.93697,-2.3416 5.203506,-10.7064 4.41788,-8.6385 10.95457,-21.11 6.81047,-12.3201 15.01194,-27.8031 8.6266,-15.6055 17.2821,-31.9099 8.92929,-16.1531 17.15967,-32.335 8.6555,-16.3044 15.52379,-30.0224 7.01963,-13.9917 11.37289,-24.4532 4.62703,-10.3101 5.95341,-15.2959 1.52025,0.4829 3.46562,0.8434 1.67159,0.2091 4.01318,1.1461 2.34158,0.937 5.1083,1.7515 7.11148,0.7142 13.86247,3.3738 7.02476,2.8109 12.01743,7.358 5.4178,4.4247 8.37838,10.708 2.96058,6.2834 1.79235,14.2162 -2.5167,16.8383 -4.6661,34.9521 -1.87561,18.265 -3.44854,35.9825 -1.42158,17.4437 -2.63401,33.2158 -1.21242,15.7722 -1.85518,27.9273 10.96137,-17.8892 23.52972,-37.3923 12.56834,-19.503 24.19972,-36.6645 12.0565,-17.2839 21.84284,-30.461 9.78634,-13.1772 14.90993,-18.5661 0.24488,0.8502 -0.99478,3.7394 -0.81453,2.7667 -0.56966,3.617 0.24487,0.8502 1.85184,-0.7636 1.75831,-1.8875 2.00319,-1.0373 0.12243,0.4251 -0.23807,2.3705 -0.20916,1.6716 -0.721,3.8908 -0.51185,2.2191 -0.87235,4.1645 -0.3605,1.9453 -0.23807,2.3705 0.36731,1.2753 2.55756,2.4861 1.09512,0.6054 2.06781,0.7856 0.0714,5.0437 -0.008,10.3612 -0.051,4.6185 -0.55604,10.0584 -0.35369,5.1661 -1.01007,10.8798 l -0.54076,2.9181 z"
         style="font-family:BlowBrush;-inkscape-font-specification:BlowBrush;fill-opacity:1;stroke:none;stroke-width:14.7792;stroke-dasharray:none"
         id="path902" />
      <path
         d="m 402.97118,2694.2333 q -0.44404,0.8268 -1.07696,3.3276 -0.20931,2.3732 -0.84222,4.874 -0.35733,2.6488 -0.99024,5.1496 -0.20931,2.3732 -0.50534,2.9244 -1.90374,2.8835 -3.63904,4.7922 -1.58728,1.6332 -3.02655,2.9907 -1.14325,0.8064 -2.96526,0.8931 -1.39841,-0.041 -2.24563,0.2143 -0.99523,0.5307 -1.29126,1.0819 0.12758,0.4236 -0.71963,0.6788 -0.84722,0.2552 -1.82202,0.087 -0.9748,-0.1684 -1.82202,0.087 -1.674,-0.1888 -3.32757,-1.0769 l -1.37798,-0.7401 q -4.40952,-2.3682 -5.93006,-17.3884 -1.37252,-15.2957 -0.14709,-38.0734 -1.674,-0.1889 -3.6236,-0.5258 -1.674,-0.1889 -3.6236,-0.5258 -4.3891,-3.0674 -12.1262,-6.5126 -7.58908,-3.7207 -16.57658,-7.4824 -8.98749,-3.7616 -18.54661,-7.12 -9.1355,-3.4861 -16.46943,-6.3596 -9.56956,6.5784 -19.69031,12.8608 -9.69714,6.1548 -19.94548,12.0136 -1.39841,-0.041 -0.78592,-1.8425 0.61248,-1.8016 -0.17344,-3.644 -0.25516,-0.8472 -1.92917,-1.0361 -1.82201,0.087 -2.20476,-1.1841 -0.12758,-0.4236 0.33689,-1.9496 0.61249,-1.8016 1.07696,-3.3276 l 1.521,-4.1543 q -1.10239,-0.5921 -1.76073,-2.0109 -1.61271,-2.2865 -0.95936,-5.4865 0.0204,-0.6992 0.7605,-2.0772 1.16368,-1.5056 2.62338,-3.5623 1.4597,-2.0568 3.36344,-4.9403 -1.41883,0.6583 -2.54165,0.7655 -2.24562,0.2143 -1.92916,-1.0361 0.92894,-3.052 2.26106,-5.5323 1.20454,-2.904 2.93984,-4.8127 5.03745,-4.7514 18.96568,-16.8009 14.35185,-12.177 32.63877,-29.6975 18.28691,-17.5205 37.83966,-40.0426 19.97635,-22.6497 36.26282,-48.3463 17.71983,6.676 27.19722,12.8313 9.901,6.0277 13.23356,11.7235 8.14028,4.0167 12.70281,10.7282 4.98614,6.5839 1.20408,16.2706 -3.16958,7.8851 -8.62065,22.0017 -5.02746,13.9891 -10.66242,34.3986 -5.63495,20.4095 -10.9026,47.4078 -4.99206,27.1464 -7.81522,61.4941 -0.31646,1.2504 -0.71964,0.6788 -0.12758,-0.4236 -0.65834,-1.4189 -0.10715,-1.1228 -0.51032,-1.6944 0.0204,-0.6992 -0.42361,0.1276 z m -64.63094,-87.2643 q 8.96707,4.4608 17.76568,9.8965 9.22223,5.308 17.59724,10.8712 1.40386,-14.5148 3.23133,-29.1572 1.97548,-14.9181 4.50216,-29.54 -11.36616,10.5847 -22.14026,20.0671 -10.35049,9.3548 -20.95615,17.8624 z"
         style="font-family:BlowBrush;-inkscape-font-specification:BlowBrush;fill-opacity:1;stroke:none;stroke-width:14.7792;stroke-dasharray:none"
         id="path904" />
      <path
         d="m 558.94648,2566.3515 q 20.39098,11.6428 41.18251,24.5509 21.2133,12.7746 42.83777,26.1152 -2.57314,3.5987 -7.25515,7.8651 -4.53789,3.9887 -11.44107,7.1019 -6.4814,2.9798 -15.31747,4.3848 -8.55843,1.549 -19.16204,-0.4309 -10.83877,-4.9217 -20.84462,-9.411 -9.86171,-4.767 -19.03461,-8.8239 -11.5093,20.8128 -24.27331,41.3267 -12.34223,20.3803 -23.08839,37.0072 -12.46513,19.2591 -24.34311,36.7083 l -13.17064,10.4337 -2.07703,-1.4307 -9.63106,7.6891 q 0.0106,-0.6994 -0.40054,-1.2653 -0.82232,-1.1318 -3.07533,-0.1866 -0.84356,0.267 -3.39546,2.467 -1.13181,0.8223 -2.13012,2.0664 l -2.22116,-1.1531 -6.49202,3.6792 1.10449,-8.2383 q -1.85247,2.2105 -3.83846,3.9993 -1.56421,1.6553 -2.84016,2.7552 -1.42008,1.3776 -1.97537,1.0894 0.8754,-2.3653 4.92171,-10.8388 4.0463,-8.4735 10.11045,-20.834 6.48593,-12.494 14.27965,-28.1863 7.79373,-15.6923 16.01985,-32.2174 8.37026,-16.8029 16.31873,-33.4722 8.37026,-16.8028 15.45395,-31.8063 -19.4564,-8.6904 -30.57282,-13.7562 -10.83878,-4.9217 -14.59229,-6.5178 -5.97468,-2.7491 -8.13213,-8.0987 -2.4351,-5.4937 -2.06189,-11.6444 0.51734,-6.4283 2.98881,-12.5471 2.61561,-6.3965 6.46469,-11.0952 3.57144,-4.8428 7.94396,-7.155 4.239,-2.734 8.4143,-1.2715 11.27117,4.0888 24.05346,10.0194 12.78229,5.9307 26.94219,13.2814 2.53066,-0.8011 4.20715,-0.6357 2.9312,0.4642 6.82885,1.7827 3.89765,1.3184 7.64055,3.6139 4.16468,2.1619 7.47518,5.2904 3.58815,3.2725 6.178,7.7892 z"
         style="font-family:BlowBrush;-inkscape-font-specification:BlowBrush;fill-opacity:1;stroke:none;stroke-width:14.7792;stroke-dasharray:none"
         id="path906" />
      <path
         d="m 666.09715,2826.2441 q -0.41054,0.8439 -0.94272,3.3681 -0.11402,2.3796 -0.6462,4.9038 -0.25087,2.661 -0.78304,5.1851 -0.11402,2.3797 -0.38772,2.9423 -1.78664,2.9576 -3.44404,4.9343 -1.52056,1.6955 -2.90426,3.1096 -1.11001,0.8515 -2.92708,1.0112 -1.39892,0.015 -2.23523,0.3041 -0.97316,0.5703 -1.24686,1.1329 0.14446,0.4181 -0.69185,0.707 -0.83631,0.289 -1.81708,0.1597 -0.98077,-0.1292 -1.81708,0.1597 -1.68022,-0.1216 -3.36806,-0.9427 l -1.40653,-0.6843 q -4.5009,-2.1896 -6.62223,-17.1367 -1.98448,-15.2285 -1.67296,-38.037 -1.68023,-0.1216 -3.64177,-0.3801 -1.68023,-0.1216 -3.64176,-0.3801 -4.50851,-2.8891 -12.37747,-6.0214 -7.73212,-3.4136 -16.86316,-6.8119 -9.13104,-3.3984 -18.81708,-6.3711 -9.26789,-3.117 -16.71109,-5.6943 -9.29821,6.9567 -19.15903,13.6396 -9.44267,6.5386 -19.44795,12.8034 -1.39892,0.015 -0.85913,-1.8095 0.53978,-1.8247 -0.31936,-3.6341 -0.28891,-0.8363 -1.96914,-0.958 -1.81708,0.1597 -2.25045,-1.0948 -0.14446,-0.4181 0.25848,-1.9615 0.53978,-1.8247 0.94272,-3.3681 l 1.35327,-4.2119 q -1.12523,-0.5474 -1.83991,-1.9388 -1.70305,-2.22 -1.17848,-5.4436 -0.008,-0.6994 0.67663,-2.106 1.1024,-1.551 2.47849,-3.6646 1.3761,-2.1136 3.16274,-5.0711 -1.39132,0.7147 -2.50893,0.8668 -2.23523,0.3041 -1.96915,-0.958 0.80588,-3.0867 2.03751,-5.6185 1.08718,-2.9499 2.74458,-4.9267 4.84297,-4.9494 18.27707,-17.5475 13.85226,-12.7424 31.42225,-30.9818 17.57,-18.2394 36.20434,-41.527 19.05251,-23.4322 34.29596,-49.7609 17.97316,5.9604 27.68964,11.7309 10.13464,5.626 13.69281,11.1837 8.29473,3.6873 13.12259,10.2105 5.24602,6.3787 1.85524,16.2092 -2.85099,8.0058 -7.73188,22.3296 -4.46274,14.1793 -9.27515,34.7983 -4.81241,20.6189 -8.99373,47.8067 -3.90001,27.3246 -5.34424,61.7579 -0.26609,1.2621 -0.69185,0.7071 -0.14446,-0.4182 -0.71468,-1.3913 -0.15207,-1.1177 -0.57783,-1.6727 -0.008,-0.6994 -0.41816,0.1445 z m -68.07657,-84.6038 q 9.13865,4.0979 18.14806,9.1765 9.42756,4.9341 18.01881,10.1572 0.82098,-14.5594 2.06011,-29.2633 1.37598,-14.9852 3.31457,-29.6967 -10.93278,11.0318 -21.31817,20.9384 -9.96723,9.7621 -20.22338,18.6879 z"
         style="font-family:BlowBrush;-inkscape-font-specification:BlowBrush;fill-opacity:1;stroke:none;stroke-width:14.7792;stroke-dasharray:none"
         id="path908" />
      <path
         d="m 868.69335,2740.1327 q -9.8746,15.0307 -29.17295,27.588 -19.29835,12.5573 -41.54694,21.3599 5.37453,11.6497 8.32272,28.0729 2.9482,16.4233 2.71374,33.3403 0.0591,17.0253 -3.29595,32.4587 -3.35501,15.4335 -10.29337,25.2118 4.08028,-10.165 5.45675,-19.3263 1.77819,-9.3466 2.10379,-16.5614 0.35666,-8.2036 -0.70822,-15.2642 -0.77441,12.0504 -2.29013,22.494 -1.37648,9.1613 -3.63351,17.998 -2.14885,8.5432 -5.45574,12.9921 -0.18533,-0.4017 -0.37066,-0.8034 0.1082,-0.2936 -0.0771,-0.6953 l -0.37066,-0.8034 q -1.34439,1.8383 -2.95125,2.5796 -1.31334,0.8495 -2.81201,1.2973 -1.31334,0.8495 -1.90038,0.6331 -0.88056,-0.3246 -2.45637,-0.572 -1.28228,-0.1393 -2.85808,-0.3867 -1.5758,-0.2475 -3.44512,-0.6031 l -1.55976,-3.909 q 1.03687,-10.9534 0.004,-25.337 -0.73927,-14.2754 -3.23968,-29.2 -2.20688,-14.8163 -5.64997,-28.0879 -3.04137,-13.457 -6.12984,-22.2636 -6.87523,1.4666 -13.34874,2.7478 -6.0718,1.096 -11.92722,1.6048 -4.04922,9.1764 -7.44929,16.5915 -2.99835,7.2299 -5.64107,12.5904 -2.96729,6.2411 -5.20829,11.4163 -1.01981,0.9577 -2.33315,1.8072 -2.33316,1.8072 -5.79432,4.8656 -1.20514,0.556 -3.13658,2.1779 -1.63792,1.7301 -3.27584,3.4601 -2.03963,1.9154 -4.18745,4.1244 -0.98876,-0.031 -2.37924,0.1232 -1.09695,0.2624 -2.48742,0.4167 -1.39047,0.1543 -2.3021,0.8185 -0.5099,0.4788 -1.12801,1.2512 -0.5099,0.4788 -1.52972,1.4365 -1.01982,0.9577 -2.14782,2.209 l -2.34818,-0.8656 -5.68612,4.5721 q -0.37066,-0.8034 -0.84951,-1.3133 -0.9577,-1.0198 -1.54474,-1.2362 -1.39048,0.1543 -2.9202,1.5908 -1.2362,1.5447 -2.11677,1.2202 0.49489,-3.1516 4.99293,-17.1635 4.60623,-14.3055 11.37632,-34.4813 6.87829,-20.4694 14.54499,-43.9822 8.06841,-23.6981 14.90062,-45.8515 7.23392,-22.3387 12.2579,-40.491 5.31751,-18.044 6.58579,-26.9118 0.32458,-0.8806 1.74611,-2.0236 1.71505,-1.0348 4.27961,-0.7563 5.12912,0.557 12.97707,2.783 8.14147,2.3341 14.073,8.8547 6.33325,6.3353 7.93807,18.2625 1.71301,11.6337 -6.01478,30.7898 -4.18848,10.4586 -8.37695,20.9171 -4.18848,10.4586 -8.56229,20.5155 8.51315,-3.1967 19.06593,-8.3087 10.95449,-5.2974 22.18749,-13.1594 11.63471,-8.0472 22.96088,-18.8755 11.43436,-11.1217 21.3861,-25.4572 3.46116,-3.0584 8.18857,-2.3161 4.7274,0.7424 9.1763,4.0493 4.85062,3.1215 8.65036,8.1895 4.09327,5.1763 6.39435,10.6921 2.59459,5.624 2.80996,11.3712 0.61708,5.5619 -2.1799,9.5319 z"
         style="font-family:BlowBrush;-inkscape-font-specification:BlowBrush;fill-opacity:1;stroke:none;stroke-width:14.7792;stroke-dasharray:none"
         id="path910" />
      <path
         d="m 925.85541,2745.2677 q -0.50171,2.1315 -4.85508,11.0695 -3.97719,8.7051 -9.40563,22.2107 -5.35678,13.2011 -10.89293,29.895 -5.46449,16.3895 -8.94077,33.8897 -3.17178,17.5718 -3.01181,34.6424 0.53615,16.8377 6.80445,31.1681 17.42891,-1.6825 30.61335,-14.0053 13.18444,-12.3228 22.19569,-30.1271 9.01124,-17.8042 13.65209,-38.8868 5.01703,-21.3154 5.80662,-41.0549 1.09409,-19.6677 -1.69913,-35.1085 -2.72154,-15.7452 -9.11577,-22.7136 l 2.77659,-2.2388 q 1.52253,0.3583 2.43605,0.5734 1.21802,0.2866 2.66888,0.9495 0,0 2.70452,3.529 3.00902,3.6006 6.57321,8.9387 3.56418,5.3382 6.77,12.1989 3.2775,6.5562 4.28011,13.2197 -0.41142,-7.8099 -3.00823,-14.5272 -2.52514,-7.0219 -5.55198,-11.9122 -2.65067,-5.1231 -4.88952,-7.8997 -2.16718,-3.0811 -1.86267,-3.0094 14.1324,6.8614 22.74726,20.78 8.91939,13.9903 12.35719,32.1537 3.8141,17.9306 2.8812,38.2791 -0.933,20.3484 -5.8961,40.0696 -4.96323,19.7212 -13.59829,37.2927 -8.33056,17.6431 -20.22531,29.9481 -11.51856,12.0721 -25.93845,17.3552 -14.11538,5.3548 -30.64819,0.4994 -22.01392,-6.1456 -35.53691,-18.327 -13.21848,-12.1098 -20.63314,-27.0314 -7.03848,-15.1544 -9.31217,-31.437 -1.89751,-16.5154 -1.26949,-31.4722 0.6997,-15.2613 2.95756,-27.5849 2.56237,-12.2519 4.13915,-18.951 2.66967,-9.9771 6.98741,-21.4944 4.62223,-11.4457 9.11895,-20.9927 5.23125,-11.3024 11.07151,-22.4614 -0.0356,-2.5794 0.0899,-4.4781 0.0539,-1.5942 0.41221,-3.1167 0.35836,-1.5226 1.11071,-1.9882 3.69011,-2.0239 12.12679,-1.0022 8.74118,1.0933 16.76564,5.2316 8.09614,3.8339 13.20067,10.8201 5.40904,7.0579 3.04387,17.1066 z"
         style="font-family:BlowBrush;-inkscape-font-specification:BlowBrush;fill-opacity:1;stroke:none;stroke-width:14.7792;stroke-dasharray:none"
         id="path912" />
      <path
         d="m 1199.0511,2859.0432 q -2.242,11.6741 -7.3914,20.2415 -5.0904,8.2601 -11.9772,14.264 -6.8279,5.6967 -15.5112,9.4442 -8.3761,3.8066 -17.3789,5.9001 5.8411,17.6861 5.7394,36.4607 0.2644,18.5263 -5.829,32.0091 2.6795,-10.6344 2.8545,-19.8386 0.175,-9.2042 -0.7365,-16.0687 -1.2899,-8.2113 -3.5482,-14.6973 0.9481,11.6496 1.1515,22.2007 0.1913,8.9559 -0.5981,18.0421 -0.4232,8.8379 -2.9033,13.4583 -0.2482,-0.3662 -0.4964,-0.7324 0.059,-0.3072 -0.1892,-0.6734 l -0.4964,-0.7324 q -1.2757,1.6662 -2.7406,2.6591 -1.1576,1.0518 -2.2562,1.7964 -1.1577,1.0519 -1.7721,0.9339 -0.6734,0.1892 -1.9023,-0.047 -1.2878,0.071 -2.8829,0.083 -1.5951,0.012 -3.5563,0.2726 l -2.1749,-3.6031 q -1.1272,-19.0106 -7.6417,-36.5074 -6.4555,-17.8041 -14.1155,-32.6541 -8.5307,-0.3642 -15.6556,-1.414 -7.1249,-1.0498 -12.0403,-1.9939 l -1.8433,-0.354 q -1.9714,6.9479 -3.3997,12.726 -1.4282,5.778 -2.5614,10.02 -1.2513,4.8564 -2.2665,8.4839 -0.8504,1.1109 -2.0081,2.1627 -0.8504,1.1109 -2.067,2.4699 -1.2167,1.3591 -2.7995,2.9664 -0.8505,1.1108 -2.4333,2.7181 -1.2757,1.6663 -2.6103,3.6397 -1.7009,2.2217 -3.4607,4.7506 -0.9807,0.1302 -2.3275,0.5087 -2.3865,0.8158 -4.2766,2.3641 -0.4252,0.5554 -0.9094,1.418 -0.4252,0.5555 -1.2757,1.6663 -0.8504,1.1109 -1.4526,2.5879 l -2.3987,-0.7792 -4.8076,5.129 -1.1108,-0.8504 q -1.1109,-0.8504 -1.4181,-0.9094 -1.3469,0.3784 -2.5635,1.7374 -0.9684,1.7253 -1.8901,1.5483 0.047,-1.9023 1.1556,-9.3344 1.1089,-7.4321 2.6185,-18.6097 1.8168,-11.1187 3.8574,-25.0613 2.4069,-14.1907 5.0497,-29.6104 -6.2398,-5.658 -10.6608,-14.1521 -4.421,-8.4941 -5.7353,-19.8956 -0.1303,-0.9806 -0.2259,-5.4586 0.2116,-4.419 1.4161,-7.3731 0.024,3.1901 0.238,7.0537 0.5798,3.6153 1.1597,7.2307 0.6388,3.3081 1.3956,6.0018 1.0641,2.7527 2.1159,3.9104 -2.5899,-9.7352 -2.6509,-17.7105 0,-8.2826 2.2298,-13.2692 0.9827,8.1523 16.5814,18.1561 2.3356,-15.4787 4.187,-30.0946 2.1586,-14.557 3.9633,-27.2708 -9.1452,-0.4821 -19.448,0.088 -3.4506,-1.9369 -5.8859,-7.5013 -2.3763,-5.8716 -2.7323,-12.3109 -0.6633,-6.4982 1.1312,-12.5245 1.7944,-6.0262 6.4962,-8.9457 2.5045,-1.4303 11.6375,-2.5432 9.4991,-1.3611 23.1813,-1.2817 13.6821,0.079 29.8932,1.9185 16.5183,1.8983 32.5055,6.5614 16.3535,4.4149 31.0773,12.3394 14.7829,7.6172 24.8761,19.7491 10.1523,11.8246 14.5753,28.6013 4.482,16.4694 -0.073,38.5297 z m -22.3105,-13.204 q 1.5462,-6.3925 -2.8626,-13.2915 -4.1016,-6.8401 -14.087,-12.8989 -9.9264,-6.366 -25.4885,-11.5846 -15.2548,-5.1595 -36.015,-8.191 -0.1648,2.5167 -0.6958,5.2816 -0.4721,2.4577 -1.0621,5.5299 -3.1392,14.6872 -6.6447,29.6226 -3.4465,14.6282 -7.1412,28.8902 13.8245,2.655 29.527,2.1667 15.7614,-0.7954 29.4192,-3.9062 13.6577,-3.1108 23.3095,-8.5836 9.6517,-5.4729 11.7412,-13.0352 z"
         style="font-family:BlowBrush;-inkscape-font-specification:BlowBrush;fill-opacity:1;stroke:none;stroke-width:14.7792;stroke-dasharray:none"
         id="path914" />
      <path
         d="m 1329.9897,2983.8375 q -0.1575,0.9252 0.039,3.4973 0.5577,2.3163 0.7545,4.8884 0.5052,2.6246 0.702,5.1967 0.5577,2.3162 0.4527,2.933 -0.8858,3.3398 -1.9226,5.702 -0.9843,2.0537 -1.916,3.799 -0.8268,1.1286 -2.5262,1.7913 -1.3386,0.4068 -2.0604,0.9186 -0.7742,0.8202 -0.8792,1.4369 0.2559,0.3609 -0.4659,0.8727 -0.7218,0.5118 -1.6995,0.6627 -0.9776,0.1509 -1.6994,0.6627 -1.647,0.3543 -3.4973,0.039 l -1.5419,-0.2625 q -4.9343,-0.8399 -11.161,-14.593 -6.1741,-14.0614 -12.2694,-36.0426 -1.647,0.3543 -3.6023,0.6561 -1.647,0.3543 -3.6023,0.6561 -5.1377,-1.5093 -13.5692,-2.3099 -8.379,-1.109 -18.0966,-1.8113 -9.7176,-0.7022 -19.8486,-0.8401 -9.7701,-0.3939 -17.6374,-0.7811 -6.975,9.2844 -14.5669,18.4638 -7.2309,8.9236 -15.0786,17.7422 -1.3386,0.4067 -1.332,-1.4961 0.01,-1.9028 -1.3253,-3.3989 -0.5118,-0.7218 -2.1588,-0.3675 -1.6994,0.6627 -2.4671,-0.4199 -0.2559,-0.3609 -0.3018,-1.9554 0.01,-1.9028 -0.039,-3.4973 l 0.1182,-4.4224 q -1.2336,-0.21 -2.3097,-1.3452 -2.2571,-1.6535 -2.6573,-4.8949 -0.2034,-0.6693 0.059,-2.2112 0.6233,-1.7979 1.3517,-4.2125 0.7284,-2.4147 1.6142,-5.7545 -1.1351,1.0761 -2.1653,1.5354 -2.0603,0.9186 -2.1587,-0.3675 -0.092,-3.1889 0.3806,-5.9644 0.2166,-3.1364 1.2534,-5.4985 3.2612,-6.1087 12.6247,-21.9678 9.7244,-16.1149 21.4765,-38.5486 11.752,-22.4336 23.1104,-50.0115 11.7194,-27.8338 18.9703,-57.3802 18.9234,0.6827 29.868,3.4977 11.3054,2.5592 16.279,6.8965 8.9958,1.214 15.4589,6.1221 6.8239,4.6522 6.325,15.0391 -0.4922,8.484 -1.1617,23.6018 -0.3087,14.8618 0.8524,36.0031 1.161,21.1412 4.7694,48.4109 3.9168,27.3223 12.1838,60.7796 0.098,1.286 -0.4659,0.8727 -0.2559,-0.3609 -1.076,-1.1352 -0.4593,-1.0302 -1.0236,-1.4435 -0.2034,-0.6693 -0.3609,0.2558 z m -89.0651,-62.1258 q 9.921,1.3715 19.9929,3.7207 10.4328,2.0932 20.1438,4.6983 -3.2937,-14.2057 -6.2264,-28.6674 -2.8803,-14.77 -5.1438,-29.435 -7.4016,13.6544 -14.5932,26.0752 -6.8308,12.165 -14.1733,23.6082 z"
         style="font-family:BlowBrush;-inkscape-font-specification:BlowBrush;fill-opacity:1;stroke:none;stroke-width:14.7792;stroke-dasharray:none"
         id="path916" />
      <path
         d="m 1502.8965,2952.8486 q -0.9222,18.2175 -8.3102,33.2176 -7.3881,15.0002 -19.7183,25.1197 -11.9732,9.8582 -28.1744,14.3133 -16.2013,4.455 -34.4406,1.6302 -15.7662,-2.4419 -30.0045,-10.6616 -14.2382,-8.2197 -24.4274,-22.1435 -9.8323,-14.1851 -14.0698,-33.8348 -4.2375,-19.6496 0.616,-44.8556 5.5237,-29.5339 18.9812,-48.9755 13.8144,-19.7029 30.7598,-31.007 16.9455,-11.304 34.9537,-15.1626 18.3174,-3.8108 32.5858,-1.9175 14.6254,1.632 23.3948,8.3717 8.8173,6.4305 6.9761,16.2751 -0.814,5.2554 -3.3173,11.1988 -2.1462,5.6822 -5.529,11.1729 -3.0258,5.2294 -6.7876,9.0785 -3.7617,3.8492 -7.7108,4.8204 -11.408,-8.098 -22.7505,-10.4878 -11.2946,-2.6989 -22.0229,-0.8784 -10.3713,1.5593 -19.7715,7.0677 -9.4001,5.5084 -16.9236,13.2068 -7.1664,7.4371 -12.0991,16.803 -4.9326,9.3658 -6.726,18.9013 -1.4582,7.3715 1.2679,16.3408 2.774,8.6601 9.0921,16.9194 6.6752,7.9981 16.1587,14.2152 9.7926,6.265 22.4674,8.228 9.5834,1.4843 18.9794,0.09 9.4439,-1.7029 17.8906,-5.1431 8.4467,-3.4401 15.5393,-8.3563 7.0925,-4.9161 12.6872,-10.3807 -8.2511,-1.911 -18.9274,-4.5142 -10.3672,-2.5553 -19.8069,-4.967 -9.1306,-2.3638 -15.836,-4.0354 -6.3962,-1.6237 -7.3236,-1.7673 -9.1525,-4.2666 -15.9932,-13.2399 -6.7928,-9.2826 -11.5174,-17.6116 -0.5225,-0.7141 9.9664,-0.9889 10.846,-0.5361 32.3464,-0.3718 -6.7533,-1.3625 -14.8867,-1.989 -7.7764,-0.8879 -14.6733,-1.3229 -6.5877,-0.3872 -11.3206,-0.4871 -4.7329,-0.1 -5.042,-0.1478 -3.2569,-1.4541 -3.3267,-3.0476 7.8722,0.2695 21.7617,0.5213 14.2465,-0.01 29.943,0.8388 15.7443,0.5391 30.6789,2.219 14.9824,1.3707 24.9925,4.1873 4.5414,1.3365 7.2238,6.5003 2.6823,5.1637 3.5317,11.943 1.1586,6.8271 0.7235,13.724 -0.435,6.8968 -2.0806,11.3903 z"
         style="font-family:BlowBrush;-inkscape-font-specification:BlowBrush;fill-opacity:1;stroke:none;stroke-width:14.7792;stroke-dasharray:none"
         id="path918" />
      <path
         d="m 1554.5139,2994.5987 q 16.2771,-3.3785 34.6344,-5.83 18.6671,-2.4077 37.0705,-2.9569 18.4474,-0.859 35.3045,0.5841 16.901,1.1334 30.2214,5.2345 -0.9269,2.0802 -3.7562,4.2065 -1.4146,1.0632 -3.2269,2.7019 l -2.0758,3.4971 -12.6043,4.2154 8.5406,2.1593 q -2.6096,0.5777 -5.2632,1.4652 -2.2998,0.6216 -4.9973,1.8188 -2.3438,0.9314 -4.4219,2.2164 -4.1999,2.8799 -6.4537,5.4038 -2.2537,2.524 -5.217,3.3675 -1.2389,-0.1757 -13.4478,1.2522 -12.165,1.1181 -31.5833,4.3671 -19.1086,3.2928 -43.3024,9.024 -23.8402,5.4654 -48.6951,13.6304 -3.9803,1.3312 -7.8355,-4.9029 -3.5893,-5.8804 -5.5883,-14.0628 -1.6893,-8.1386 -0.591,-15.8818 1.1422,-8.0529 7.1566,-10.3594 1.6365,-0.3998 3.273,-0.7996 1.9902,-0.6656 3.9364,-1.0214 1.5793,-13.3622 3.554,-29.5119 2.2844,-16.1058 4.347,-32.875 2.0626,-16.7692 3.7715,-33.2726 2.0186,-16.4595 3.0663,-30.529 1.4014,-14.3353 1.9659,-24.9978 0.5645,-10.6625 -0.2813,-15.8378 3.8925,-0.7117 8.0946,-1.3795 7.741,-1.1138 17.2547,0.8676 12.3429,-0.1451 30.4389,1.4738 18.4057,1.6627 36.4138,3.901 18.3617,1.9725 34.1578,4.213 15.7961,2.2405 23.2295,3.2948 -0.4415,0.8853 -0.6172,2.1242 0.134,1.2828 -0.086,2.8315 l -0.4393,3.0972 q -1.9462,0.3559 -3.6706,1.3752 -1.6804,0.7095 -3.4048,1.7287 -1.7243,1.0193 -3.4926,2.3483 -0.7074,0.5316 -2.0781,1.285 -1.017,0.4877 -2.3877,1.2411 l -3.4487,2.0385 6.1945,0.8787 -10.702,4.1692 -0.8369,3.6728 q -3.6267,1.0654 -6.8997,1.865 -2.6535,0.8875 -5.2631,1.4652 -2.2999,0.6217 -2.9633,0.8435 -0.6194,-0.088 -6.636,0.01 -5.7069,0.1384 -14.5989,0.4569 -8.5823,0.3625 -19.3766,0.7272 -10.4846,0.4087 -20.9692,0.8173 -0.2635,1.8583 -0.8369,3.6728 -0.2635,1.8583 -0.5271,3.7167 -1.1884,6.1506 -2.2889,11.6818 -0.7907,5.575 -2.201,11.0623 10.3968,0.2108 21.7227,0.5534 11.3258,0.3426 21.9444,1.2168 10.6625,0.5645 19.6885,1.5288 9.3797,0.6985 15.5743,1.5771 -0.3976,0.5755 -0.8831,1.7705 -0.1757,1.2389 -0.927,2.0802 -0.7951,1.1511 -1.5903,2.3021 l -2.2933,7.2577 -10.3923,4.2133 4.0265,0.5711 -11.1875,5.3642 0.1801,3.1852 -11.5894,1.5157 -2.3856,3.4531 q -3.3169,1.1094 -6.5899,1.909 -2.6535,0.8874 -5.6168,1.7309 -2.6535,0.8875 -4.29,1.2873 -0.6195,-0.088 -4.1583,0.3581 -3.5388,0.4459 -8.7141,1.2916 -4.8216,0.58 -10.9261,1.2939 -6.1044,0.714 -11.8992,1.4718 -2.6864,12.2573 -5.2432,21.3734 -2.2472,9.16 -4.011,14.913 z"
         style="font-family:BlowBrush;-inkscape-font-specification:BlowBrush;fill-opacity:1;stroke:none;stroke-width:14.7792;stroke-dasharray:none"
         id="path920" />
    </g>
    <path
       style="fill:none;fill-opacity:1;stroke-width:14.7792;stroke-dasharray:none;paint-order:markers fill stroke"
       d="m 95.297667,2562.0538 c 0,0 433.092263,243.9148 620.736433,318.6602 231.16046,92.0796 993.4043,189.823 993.4043,189.823"
       id="path605" />
  </g>
</svg>
