<?xml version="1.0" encoding="UTF-8" standalone="no"?>
<!-- Created with Inkscape (http://www.inkscape.org/) -->

<svg
   width="2770.0085mm"
   height="2734.7205mm"
   viewBox="0 0 2770.0085 2734.7205"
   version="1.1"
   id="svg250"
   xmlns="http://www.w3.org/2000/svg"
   xmlns:svg="http://www.w3.org/2000/svg">
  <defs
     id="defs247" />
  <g
     id="layer1"
     style="display:inline;fill:#ed5126;fill-opacity:1"
     transform="translate(-114.9958,-228.57207)">
    <path
       id="path731"
       style="display:inline;fill:#ed5126;fill-opacity:1;stroke-width:0.264583"
       d="M 2615.0993,1032.7569 C 2618.2069,893.52674 2510.2442,670.02397 2305.8778,503.78191 2101.5114,337.53985 1800.7584,228.57215 1499.9988,228.57208 1199.2393,228.572 898.48586,337.53987 694.11952,503.78194 489.75319,670.02401 381.79269,893.52237 384.90071,1032.7553 c 3.10802,139.2329 117.28579,194.1847 231.46612,249.1377 294.54392,-52.8413 589.08797,-105.6827 883.63227,-105.6827 294.5442,10e-5 589.0883,52.8414 883.6327,105.6827 114.18,-54.953 228.36,-109.906 231.4675,-249.1361 z" />
  </g>
  <g
     id="layer2"
     style="display:inline;fill:#ed5126;fill-opacity:1"
     transform="translate(-194.30161,-228.57207)">
    <path
       id="rect725"
       style="fill:#ed5126;fill-opacity:1;stroke-width:11;paint-order:markers fill stroke"
       d="M 1120.837,1155.9089 894.04729,1045.2962 194.30162,2479.9874 651.93533,2117.2999 Z" />
    <path
       id="path878"
       style="fill:#ed5126;fill-opacity:1;stroke-width:11;paint-order:markers fill stroke"
       d="m 2037.7748,1155.9089 226.7897,-110.6127 699.7457,1434.6912 -457.6337,-362.6875 z" />
  </g>
  <g
     id="layer4"
     style="stroke:#ed5126;stroke-opacity:1"
     transform="translate(-114.9958,-228.57207)">
    <path
       style="fill:none;fill-opacity:1;stroke:#ed5126;stroke-width:30;stroke-linecap:square;stroke-linejoin:round;stroke-dasharray:none;stroke-opacity:1;paint-order:markers fill stroke"
       transform="rotate(-90)"
       d="m -2943.48,1493.44 c 29.18,13.03 58.37,0.14 87.55,13.12 29.18,12.99 58.37,62.05 87.55,143.75 29.18,81.7 58.37,181.38 87.55,87.27 29.18,-94.12 58.37,-380.71 87.55,-475.16 29.18,-94.44 58.37,5.54 87.55,87.27 29.18,81.73 58.37,130.71 87.55,143.75 29.18,13.03 58.37,0.14 87.55,13.12 29.18,12.99 58.37,62.05 87.55,143.75 29.18,81.7 58.37,181.38 87.55,87.27 29.18,-94.12 58.37,-380.71 87.55,-475.16 29.18,-94.44 58.37,5.54 87.55,87.27 29.19,81.73 58.37,130.71 87.55,143.75 29.19,13.03 58.37,0.14 87.55,13.12 29.19,12.99 58.37,62.05 87.55,143.75 29.19,81.7 58.37,181.38 87.55,87.27 29.19,-94.12 58.37,-380.71 87.55,-475.16 29.19,-94.44 58.37,5.54 87.55,87.27 29.19,81.73 58.37,130.71 87.55,143.75 29.19,13.03 58.37,0.14 87.55,13.12 29.19,12.99 58.37,62.05 87.55,143.75 29.19,81.7 58.37,181.38 87.55,87.27 29.19,-94.12 58.37,-380.71 87.55,-475.16 29.187,-94.44 58.37,5.54 87.553,87.27"
       title="sin(x+sin(1*x+pi/2)+pi/2)"
       id="path7830" />
    <path
       style="fill:none;fill-opacity:1;stroke:#ed5126;stroke-width:30;stroke-linecap:square;stroke-linejoin:round;stroke-miterlimit:4;stroke-dasharray:none;stroke-opacity:1;paint-order:markers fill stroke"
       d="m 1737.58,2931.5402 c -94.12,-29.18 -380.71,-58.37 -475.16,-87.55 -94.44,-29.18 5.54,-58.37 87.27,-87.55 81.73,-29.18 130.71,-58.37 143.75,-87.55 13.03,-29.18 0.14,-58.37 13.12,-87.55 12.99,-29.18 62.05,-58.37 143.75,-87.55 81.7,-29.18 181.38,-58.37 87.27,-87.55 -94.12,-29.18 -380.71,-58.37 -475.16,-87.55 -94.44,-29.18 5.54,-58.37 87.27,-87.55 81.73,-29.19 130.71,-58.37 143.75,-87.55 13.03,-29.19 0.14,-58.37 13.12,-87.55 12.99,-29.19 62.05,-58.37 143.75,-87.55 81.7,-29.19 181.38,-58.37 87.27,-87.55 -94.12,-29.19 -380.71,-58.37 -475.16,-87.55 -94.44,-29.19 5.54,-58.37 87.27,-87.55 81.73,-29.19 130.71,-58.37 143.75,-87.55 13.03,-29.19 0.14,-58.37 13.12,-87.55 12.99,-29.19 62.05,-58.37 143.75,-87.55 81.7,-29.19 181.38,-58.37 87.27,-87.55 -94.12,-29.19 -380.71,-58.37 -475.16,-87.55 -94.44,-29.187 98.6297,-98.127 180.3597,-127.31"
       title="sin(x+sin(1*x+pi/2)+pi/2)"
       id="path7857" />
  </g>
</svg>
